<?xml version="1.0" standalone="no"?>
<!DOCTYPE svg PUBLIC "-//W3C//DTD SVG 20010904//EN"
 "http://www.w3.org/TR/2001/REC-SVG-20010904/DTD/svg10.dtd">
<svg version="1.0" xmlns="http://www.w3.org/2000/svg"
 width="2000.000000pt" height="2000.000000pt" viewBox="0 0 2000.000000 2000.000000"
 preserveAspectRatio="xMidYMid meet">
<metadata>
Created by potrace 1.11, written by Peter Selinger 2001-2013
</metadata>
<g transform="translate(0.000000,2000.000000) scale(0.100000,-0.100000)"
fill="#FFFFFF" stroke="none">
<path d="M12617 19675 c-1 -2 -32 -5 -69 -9 -271 -25 -538 -142 -694 -302
-190 -196 -389 -626 -530 -1141 -51 -187 -52 -193 -37 -242 27 -90 10 -176
-44 -233 -22 -23 -32 -27 -62 -22 -45 7 -115 -16 -196 -65 -48 -30 -66 -36
-88 -30 -78 21 -286 -8 -477 -67 -199 -61 -570 -273 -910 -519 -92 -66 -320
-242 -330 -254 -3 -3 -27 -24 -55 -46 -27 -21 -61 -49 -75 -61 -14 -12 -65
-57 -115 -100 -105 -92 -83 -72 -226 -204 -199 -185 -609 -601 -727 -738 -69
-80 -232 -261 -262 -292 -52 -52 -277 -307 -377 -425 -75 -91 -247 -302 -306
-377 -31 -40 -61 -77 -65 -83 -174 -218 -542 -743 -712 -1015 -29 -47 -73
-107 -98 -135 -25 -27 -63 -77 -84 -110 -22 -33 -44 -59 -50 -57 -27 7 -34
-21 -37 -130 -2 -101 1 -118 21 -158 l23 -45 -32 -95 c-48 -144 -65 -240 -70
-412 -8 -221 15 -396 83 -629 4 -15 1 -16 -33 -3 -119 42 -436 -17 -518 -96
-107 -104 -86 -242 60 -385 39 -38 96 -83 126 -99 168 -88 275 -151 283 -165
19 -34 145 -150 186 -171 113 -57 245 -64 360 -17 59 24 65 25 74 10 23 -42
93 -105 141 -128 29 -13 82 -30 118 -37 l65 -12 37 -136 c20 -74 41 -148 46
-165 5 -16 39 -138 75 -270 36 -132 72 -262 80 -290 15 -53 83 -300 89 -325 4
-16 6 -25 85 -310 28 -102 60 -217 70 -256 11 -39 53 -194 95 -344 64 -233 73
-276 62 -289 -17 -20 -267 -302 -282 -317 -5 -6 -50 -57 -99 -113 -48 -55 -92
-101 -96 -101 -4 0 -20 19 -35 42 -62 94 -165 218 -260 313 -162 161 -368 295
-603 391 -64 26 -118 49 -120 50 -2 1 -5 42 -6 91 -5 147 -60 238 -176 292
l-55 26 -610 1 -609 1 -41 99 c-22 54 -48 113 -57 129 -20 37 -98 115 -152
151 -110 75 -298 144 -436 159 -65 8 -203 8 -245 1 -16 -2 -50 -8 -74 -11
-137 -22 -286 -99 -388 -200 -76 -76 -110 -136 -148 -262 -10 -35 -23 -63 -29
-64 -6 0 -308 -2 -671 -3 l-660 -2 -50 -24 c-84 -41 -140 -106 -166 -192 -6
-21 -10 -386 -10 -989 l0 -956 -40 -44 c-61 -67 -229 -292 -301 -404 -119
-184 -254 -435 -307 -570 -5 -11 -13 -31 -19 -45 -84 -193 -203 -585 -226
-745 -4 -23 -9 -52 -11 -65 -10 -49 -24 -146 -30 -205 -4 -33 -8 -67 -10 -75
-21 -77 -21 -659 -1 -766 2 -10 7 -48 11 -84 8 -78 43 -288 59 -355 77 -331
164 -580 301 -860 62 -128 234 -429 254 -445 3 -3 19 -25 36 -50 31 -47 106
-151 115 -160 3 -3 19 -23 35 -45 115 -154 400 -443 584 -591 13 -10 28 -24
35 -29 79 -73 350 -254 526 -352 437 -244 970 -416 1420 -458 36 -4 76 -9 90
-12 57 -12 598 -11 710 2 63 7 142 16 175 20 33 4 92 13 130 21 39 8 86 17
105 20 58 9 299 71 410 107 235 76 511 199 725 322 117 67 348 220 414 274 25
20 73 59 106 85 275 219 606 587 792 881 70 111 167 278 203 352 25 51 49 92
55 93 5 0 39 -11 75 -24 36 -14 229 -84 429 -156 200 -73 393 -147 430 -165
168 -84 311 -115 506 -110 77 2 154 6 171 10 l31 6 98 -261 c54 -143 100 -262
104 -264 3 -2 86 48 184 111 l177 115 0 53 c0 58 -5 53 88 86 44 15 62 17 105
8 29 -6 65 -13 80 -15 15 -3 51 -11 80 -19 34 -9 94 -13 172 -11 103 3 128 6
175 28 65 30 89 54 100 101 27 124 -174 326 -535 537 -49 29 -91 54 -93 55 -2
2 13 35 33 74 47 94 90 225 109 331 19 105 15 324 -8 425 -51 230 -161 433
-319 588 -35 34 -37 40 -25 55 19 23 220 254 233 268 16 17 98 112 445 509
177 204 341 391 364 416 22 25 66 74 97 110 383 439 633 725 638 729 3 3 33
37 66 75 33 39 74 86 91 105 17 19 111 127 210 240 98 113 181 207 184 210 3
3 32 37 65 75 33 39 65 75 71 80 6 6 71 80 145 165 121 140 175 202 204 234 6
6 55 63 110 126 55 63 102 117 105 120 3 3 21 23 40 45 19 23 62 72 96 110 33
39 110 126 170 195 60 69 111 127 114 130 3 3 34 39 70 80 36 41 81 92 100
113 l36 38 73 -247 c41 -136 91 -301 113 -367 21 -66 37 -121 36 -122 -2 -1
-37 -21 -78 -45 -113 -65 -409 -267 -440 -300 -3 -3 -30 -25 -60 -50 -30 -25
-71 -58 -90 -75 -63 -54 -345 -339 -385 -390 -22 -27 -46 -56 -52 -63 -7 -7
-34 -41 -60 -75 -26 -34 -50 -64 -53 -67 -20 -19 -156 -225 -227 -345 -186
-312 -364 -751 -428 -1055 -2 -8 -8 -35 -14 -60 -5 -25 -13 -61 -16 -80 -3
-19 -10 -53 -15 -75 -5 -22 -11 -65 -15 -95 -3 -30 -10 -82 -15 -115 -31 -209
-34 -781 -5 -895 2 -8 7 -42 11 -75 10 -87 11 -100 20 -147 4 -24 8 -45 9 -48
1 -3 5 -25 9 -50 29 -170 114 -454 198 -665 291 -727 793 -1346 1448 -1782
484 -322 1068 -541 1625 -608 33 -3 71 -8 83 -10 151 -24 697 -24 818 -1 10 2
48 7 84 11 36 3 72 8 80 10 8 2 31 7 50 10 19 3 46 7 60 10 14 3 41 7 60 10
122 20 433 108 605 173 185 69 425 184 595 285 110 66 294 188 298 199 2 4 8
8 14 8 5 0 15 6 22 13 7 6 28 23 46 37 279 210 560 497 774 790 293 401 497
834 621 1316 19 73 37 145 40 160 13 66 55 343 59 394 20 218 24 416 12 620
-7 118 -10 155 -21 225 -2 17 -7 55 -10 85 -4 30 -18 114 -31 185 -165 851
-617 1627 -1277 2193 -453 388 -1002 672 -1570 812 -89 22 -180 42 -202 45
-22 4 -47 8 -55 10 -8 2 -37 7 -65 11 -27 3 -52 8 -55 9 -3 2 -39 6 -79 10
-41 4 -82 8 -91 10 -32 6 -278 18 -375 18 -101 0 -334 -11 -390 -19 -16 -2
-48 -6 -70 -8 -55 -6 -136 -17 -160 -22 -10 -2 -37 -6 -59 -10 -45 -6 -234
-49 -282 -63 -29 -8 -38 -3 -145 80 -119 92 -129 105 -143 196 -7 47 -6 48 74
57 231 29 580 149 755 261 28 18 86 74 130 125 44 51 91 105 105 120 14 15 48
53 75 85 28 32 55 63 60 69 6 6 70 79 143 162 118 135 136 152 170 158 55 8
114 55 156 124 20 33 36 65 36 72 0 9 13 11 50 7 84 -10 113 8 154 98 l24 50
-2 -173 -1 -173 95 -68 c52 -37 146 -104 208 -149 122 -88 151 -97 193 -63 24
19 24 20 6 53 -17 32 -96 98 -116 98 -5 0 -11 4 -13 8 -1 5 -54 43 -117 86
l-115 77 0 236 c-1 230 0 239 23 291 l24 53 -107 268 c-59 148 -118 283 -131
301 -59 80 -218 168 -314 174 -106 7 -230 58 -373 154 -94 62 -94 62 -57 116
l31 47 -44 52 c-74 88 -165 218 -295 423 -28 44 -249 400 -258 416 -5 9 -33
57 -62 106 -29 48 -68 133 -86 188 -48 139 -79 211 -153 361 l-52 102 42 3 41
3 1 95 c0 138 9 128 -108 126 l-101 -1 -103 168 c-139 225 -341 522 -421 619
-90 109 -306 517 -515 973 -182 397 -198 435 -189 475 20 98 -61 325 -200 561
-37 61 -39 69 -36 135 9 207 -88 470 -280 758 -40 59 -73 113 -73 120 0 25 64
86 116 111 63 30 176 56 244 57 25 0 74 -7 110 -17 90 -23 230 -30 285 -15 82
23 132 101 120 187 -18 132 -18 147 5 176 12 15 29 27 38 27 47 1 88 74 80
144 -5 44 -5 44 36 60 54 21 72 48 52 79 -52 79 4 242 79 227 5 -1 29 4 52 11
45 12 102 66 104 97 0 9 2 25 4 35 5 24 -12 81 -42 147 -14 30 -31 69 -38 85
-7 17 -30 66 -50 110 -68 147 -76 172 -60 185 15 13 44 91 51 142 3 18 6 84 8
146 2 62 6 114 8 116 1 1 28 15 58 30 179 94 314 214 371 331 31 64 34 77 34
163 0 120 -1 121 -138 117 -126 -5 -342 -49 -535 -110 -46 -15 -85 -25 -86
-23 -1 2 -21 35 -43 73 -86 145 -201 259 -323 318 -122 60 -313 98 -503 101
-70 1 -128 2 -130 1z m-1126 -5405 c12 -10 128 -189 181 -280 134 -229 451
-847 611 -1190 l26 -55 -22 -5 c-20 -5 -21 -12 -22 -113 0 -65 4 -107 10 -108
5 -1 39 -2 74 -2 l64 -1 49 -106 c187 -402 321 -607 725 -1110 26 -32 329
-396 350 -420 12 -14 31 -36 43 -50 12 -14 49 -56 83 -94 72 -80 90 -106 141
-199 l37 -68 -253 2 c-279 2 -325 -2 -432 -37 -109 -36 -186 -110 -186 -178 0
-31 28 -52 98 -72 28 -9 52 -18 53 -22 1 -12 9 -46 64 -287 21 -91 60 -254
100 -415 20 -80 38 -154 40 -165 3 -11 15 -59 28 -107 l24 -87 -26 -6 c-14 -2
-42 -7 -61 -10 -56 -7 -202 -27 -235 -31 -83 -10 -122 -15 -262 -34 -84 -11
-165 -22 -180 -24 -15 -3 -50 -7 -78 -10 -27 -4 -68 -9 -90 -12 l-40 -6 108
108 c194 194 254 320 249 519 -5 218 -156 503 -394 745 -73 75 -358 348 -444
427 -136 124 -224 203 -259 234 -22 19 -56 49 -75 66 -19 18 -44 40 -56 50
-234 208 -690 601 -1033 892 -113 96 -208 177 -211 180 -3 3 -30 26 -60 51
-63 52 -83 68 -125 105 -16 15 -50 43 -75 63 -25 20 -50 42 -56 47 -6 6 -32
28 -59 50 -27 22 -60 50 -74 63 l-26 23 90 -5 c50 -3 145 -9 213 -12 l122 -7
1 39 c1 21 2 72 3 113 l1 74 -55 2 c-112 4 -341 20 -358 24 -2 1 29 34 68 74
62 62 213 251 222 277 2 5 19 11 38 13 109 13 232 116 354 297 50 74 66 102
125 216 40 79 44 82 109 114 73 36 183 107 277 179 52 40 261 215 275 230 3 4
33 32 68 64 l63 57 27 -32 c15 -18 29 -35 33 -38z m2584 -4245 c138 -4 275 -7
305 -8 52 -2 55 -3 54 -27 -2 -34 -14 -142 -19 -160 -2 -8 -6 -44 -10 -80 -4
-36 -8 -78 -10 -95 -2 -16 -7 -61 -10 -100 -3 -38 -8 -81 -10 -95 -2 -14 -7
-62 -10 -107 -8 -115 -11 -122 -47 -161 -34 -35 -58 -48 -106 -57 -15 -3 -96
-23 -180 -44 -106 -27 -155 -36 -157 -28 -8 23 -84 304 -154 572 -39 149 -75
284 -80 300 -5 17 -12 46 -15 67 l-7 36 103 -3 c57 -2 216 -7 353 -10z m690
-155 c1 -74 -1 -142 -4 -151 -5 -15 -52 -68 -212 -243 -26 -28 -67 -73 -92
-101 l-46 -50 4 45 c2 25 7 79 10 120 16 214 30 376 40 455 1 11 3 30 4 43 l1
23 147 -3 147 -3 1 -135z m421 51 c5 -5 36 -24 69 -42 33 -18 101 -56 150 -85
l90 -52 18 -88 c10 -51 20 -150 22 -233 l4 -145 -196 -270 c-108 -149 -205
-281 -216 -293 -28 -31 -110 -68 -245 -109 -64 -20 -124 -37 -132 -39 -8 -1
-35 -8 -60 -15 -45 -12 -65 -17 -109 -26 -14 -3 -60 -13 -103 -23 -43 -10 -80
-16 -82 -12 -4 8 0 191 8 321 6 100 7 106 35 131 16 14 80 73 143 131 62 58
127 117 143 132 17 15 55 51 85 79 31 29 109 102 174 162 148 136 150 139 152
173 1 15 5 83 9 152 4 69 8 133 7 143 -1 18 18 23 34 8z m-7256 -722 c58 -52
130 -116 161 -142 47 -39 60 -58 78 -110 12 -34 26 -71 32 -82 34 -73 139
-433 139 -477 0 -9 -22 -14 -78 -16 -42 -2 -93 -5 -112 -7 -19 -2 -87 -7 -150
-10 -63 -4 -117 -7 -120 -7 -20 -1 -30 4 -30 16 0 7 -17 76 -39 152 -21 77
-89 326 -151 554 -61 228 -120 444 -130 479 l-19 63 157 -159 c86 -87 204
-201 262 -254z m1855 356 c22 -3 74 -10 115 -16 41 -6 89 -12 105 -14 162 -21
184 -24 225 -30 19 -2 58 -7 85 -10 28 -3 61 -7 75 -10 14 -2 47 -7 75 -10 57
-7 66 -12 39 -21 -46 -17 -120 -121 -137 -194 -4 -18 -17 -30 -41 -38 -67 -24
-168 -106 -381 -305 l-49 -47 -118 353 c-65 193 -118 354 -118 356 0 2 19 0
43 -3 23 -4 60 -9 82 -11z m-5825 -405 c100 -28 206 -80 260 -127 40 -36 98
-138 85 -151 -7 -7 -1046 -9 -1050 -2 -6 10 41 112 67 144 49 61 161 125 251
142 17 4 48 10 67 14 64 13 240 2 320 -20z m10369 -537 c1 -131 3 -258 5 -283
6 -72 17 -161 26 -208 7 -39 5 -44 -14 -51 -34 -13 -167 -44 -170 -40 -4 5
-137 449 -142 473 -3 18 -22 81 -45 153 -8 25 -7 39 5 61 13 25 30 34 133 66
65 20 134 43 153 51 19 7 38 13 42 14 3 1 7 -106 7 -236z m-851 100 c10 -32 9
-40 -6 -58 -10 -11 -52 -58 -93 -105 -41 -47 -76 -87 -79 -90 -3 -3 -64 -72
-135 -155 -71 -82 -135 -154 -140 -160 -6 -5 -40 -44 -76 -85 -35 -41 -68 -80
-74 -86 -20 -22 -71 -81 -135 -154 -36 -41 -77 -88 -91 -105 -15 -16 -64 -73
-110 -125 -46 -53 -109 -125 -140 -160 -186 -215 -224 -258 -251 -288 -17 -19
-60 -68 -96 -110 -37 -43 -69 -79 -72 -82 -3 -3 -21 -23 -40 -46 -19 -22 -63
-71 -96 -110 -34 -38 -160 -181 -280 -319 -120 -137 -230 -263 -245 -280 -28
-31 -145 -166 -239 -274 -30 -35 -66 -76 -80 -91 -14 -15 -45 -52 -70 -81 -25
-29 -50 -57 -55 -63 -6 -6 -39 -45 -75 -86 -36 -41 -85 -98 -110 -125 -25 -28
-65 -74 -90 -103 -25 -30 -58 -68 -75 -86 -16 -18 -51 -57 -77 -87 -25 -30
-54 -63 -65 -75 -10 -12 -41 -48 -70 -80 -28 -32 -62 -70 -73 -84 -12 -14 -43
-49 -68 -79 -26 -30 -58 -66 -72 -81 -14 -15 -47 -53 -75 -85 -51 -60 -90
-105 -205 -235 -36 -41 -81 -92 -100 -114 -19 -22 -48 -55 -63 -72 l-28 -31
-63 23 c-79 28 -190 52 -287 60 -41 3 -78 8 -83 11 -7 5 -5 100 4 230 0 1 20
-6 46 -17 64 -28 145 -50 194 -54 34 -3 44 1 64 25 57 67 73 193 38 286 -34
89 -129 204 -229 275 -29 21 -43 39 -43 54 0 23 47 308 65 394 3 14 8 39 10
55 3 17 8 37 10 45 2 8 6 32 9 52 3 21 11 59 17 85 6 27 13 59 15 73 12 68 60
281 115 510 57 238 64 259 100 307 38 50 39 56 43 140 3 97 23 165 86 298 44
92 122 230 148 261 9 12 98 63 197 114 99 51 197 104 217 116 21 13 40 24 43
24 3 0 59 30 123 67 64 36 137 77 162 91 85 47 415 238 583 338 92 54 175 104
185 109 9 6 60 36 113 67 l97 57 33 -16 c74 -37 149 -9 188 69 29 60 142 148
190 149 20 0 43 2 53 4 16 3 229 32 303 41 22 2 58 7 80 10 22 3 51 7 65 9 14
2 43 6 65 9 22 3 60 8 85 11 25 3 56 8 70 10 24 4 56 8 160 20 25 3 79 10 120
15 109 16 126 18 225 30 50 7 113 15 140 20 82 12 81 13 93 -27z m-7388 -429
c276 -111 508 -277 676 -484 79 -98 174 -233 174 -249 0 -7 -30 -47 -67 -89
-38 -42 -84 -95 -103 -116 -19 -22 -56 -63 -81 -90 l-46 -50 -44 36 c-99 80
-320 221 -484 308 -44 24 -84 46 -90 51 -6 5 -9 133 -8 356 1 191 2 350 2 352
1 2 7 1 14 -2 6 -3 32 -13 57 -23z m2114 -312 c-12 -48 -25 -111 -29 -141 -4
-30 -8 -62 -10 -73 -7 -34 -18 -192 -19 -275 0 -47 -5 -82 -10 -80 -6 2 -20
39 -32 83 -12 43 -40 147 -63 229 -23 83 -44 157 -46 165 -28 101 -37 141 -34
144 4 4 46 10 149 22 30 3 57 8 59 10 2 2 16 4 31 4 l26 0 -22 -88z m-498
-398 c83 -300 94 -338 94 -350 0 -6 -21 -22 -47 -36 -40 -21 -57 -25 -103 -21
-104 9 -195 -36 -250 -125 -16 -26 -65 -83 -108 -127 -43 -44 -94 -98 -113
-121 l-34 -41 -111 113 c-105 106 -110 114 -95 131 38 43 160 181 187 212 16
18 38 43 49 55 11 13 49 56 85 96 36 40 74 83 85 96 11 12 47 52 80 90 33 37
65 72 70 78 6 6 41 46 80 90 38 43 71 74 72 69 2 -5 28 -99 59 -209z m8289 3
c11 -3 47 -8 80 -11 91 -10 134 -16 205 -29 54 -10 64 -15 64 -32 0 -21 -13
-126 -20 -159 -2 -11 -6 -40 -9 -65 -3 -25 -7 -55 -9 -66 -2 -11 -7 -47 -11
-80 -12 -91 -15 -116 -30 -215 -11 -73 -25 -180 -30 -220 -3 -25 -7 -56 -10
-70 -2 -14 -7 -45 -10 -70 -3 -25 -8 -62 -11 -83 -7 -48 -11 -80 -19 -147 -3
-30 -8 -62 -10 -70 -2 -8 -11 -69 -20 -135 -8 -66 -17 -129 -19 -140 -2 -11
-7 -42 -10 -70 -6 -45 -11 -83 -21 -155 -2 -14 -9 -63 -15 -110 -6 -47 -13
-94 -14 -105 -2 -11 -9 -62 -17 -114 l-12 -95 -175 -280 c-96 -155 -175 -282
-176 -283 -2 -2 -9 9 -17 24 -8 16 -56 102 -106 192 -51 90 -93 165 -93 167 0
1 -20 36 -44 76 -49 84 -52 97 -71 323 -3 39 -8 86 -10 105 -2 19 -7 71 -10
115 -4 44 -9 91 -10 105 -7 73 -17 170 -20 210 -8 80 -16 164 -21 214 -3 27
-7 70 -9 95 -2 25 -7 75 -10 111 -11 113 -12 123 -20 210 -4 47 -9 93 -11 103
-2 11 -6 58 -9 105 -4 48 -8 98 -10 112 -2 14 -7 61 -10 105 -4 44 -8 91 -10
105 -2 14 -7 57 -10 95 -9 108 -17 169 -21 177 -8 12 28 38 54 39 15 0 35 2
45 4 10 2 62 7 115 10 53 4 99 9 101 11 5 5 482 -4 506 -9z m-920 -140 c5 -50
9 -101 10 -112 10 -103 17 -176 20 -205 2 -19 7 -66 10 -105 4 -38 8 -86 10
-105 2 -19 6 -69 10 -110 3 -41 8 -86 10 -100 2 -14 6 -59 10 -100 3 -41 8
-91 10 -110 2 -19 6 -66 10 -105 3 -38 8 -88 10 -110 2 -22 7 -71 10 -110 4
-38 8 -83 10 -100 2 -16 7 -61 10 -100 5 -66 8 -102 20 -217 10 -101 14 -192
9 -178 -4 8 -21 40 -39 70 -18 30 -46 80 -62 110 -34 62 -76 136 -237 424 -62
111 -124 221 -138 246 -14 25 -53 95 -88 155 -38 67 -82 165 -112 250 -66 189
-168 493 -168 504 0 10 58 34 198 82 l84 28 39 -19 c74 -38 142 -21 195 51 17
24 37 37 67 45 87 21 84 25 92 -79z m1470 42 c120 -31 258 -77 385 -126 132
-52 280 -119 280 -128 0 -3 -30 -54 -66 -113 -37 -59 -74 -119 -83 -134 -9
-15 -72 -117 -141 -227 -69 -111 -129 -209 -135 -218 -14 -26 -203 -331 -230
-373 -13 -19 -94 -150 -180 -290 -87 -140 -164 -264 -172 -275 -14 -19 -15
-18 -9 15 14 87 14 87 41 295 4 26 17 123 31 220 2 17 6 46 8 65 3 19 8 53 11
75 10 69 15 106 35 250 11 77 21 156 24 175 4 28 30 217 51 365 2 17 7 53 10
80 4 28 8 61 10 75 2 14 7 48 11 75 3 28 8 57 9 66 5 25 18 122 18 137 0 16
-1 16 92 -9z m903 -383 c249 -151 426 -290 643 -506 148 -147 248 -260 332
-376 l37 -52 -242 -178 c-133 -99 -358 -264 -499 -369 -141 -104 -415 -307
-609 -450 -193 -143 -364 -270 -378 -283 -36 -29 -45 -32 -352 -102 -146 -33
-275 -62 -288 -65 -19 -5 -23 -2 -18 12 3 10 8 41 11 68 6 61 12 108 19 155 3
19 8 55 11 80 4 25 8 56 10 70 2 14 6 46 9 72 4 26 10 66 14 90 6 31 132 242
456 768 247 399 486 786 533 860 46 74 90 144 96 155 7 11 24 39 40 63 15 24
27 47 27 53 0 20 30 7 148 -65z m-11296 -47 c32 -20 94 -63 138 -94 69 -50 78
-60 68 -74 -7 -9 -49 -57 -93 -106 -172 -194 -204 -231 -224 -255 -11 -14 -21
-20 -21 -15 -2 11 -2 593 -1 613 1 14 15 7 133 -69z m7832 1 c88 -259 320
-870 390 -1023 14 -30 26 -58 26 -61 0 -2 14 -34 30 -69 17 -36 30 -67 30 -70
0 -8 137 -293 202 -422 74 -147 201 -375 240 -432 15 -23 28 -44 28 -46 0 -3
20 -36 45 -74 25 -37 45 -71 45 -75 0 -4 -10 -3 -22 2 -19 8 -168 49 -244 67
-12 3 -68 43 -125 89 -128 104 -104 85 -284 229 -82 66 -157 127 -166 135 -9
8 -56 46 -105 85 -49 38 -91 72 -94 76 -3 3 -50 41 -105 85 -55 43 -102 81
-105 84 -3 3 -75 61 -160 130 -85 69 -164 133 -175 142 -11 9 -36 30 -56 45
-73 57 -312 250 -362 293 l-29 26 43 54 c165 212 427 459 670 633 106 75 254
166 259 159 3 -4 14 -32 24 -62z m-7223 -497 c142 -147 199 -216 199 -242 0
-30 24 -84 54 -124 l25 -33 -47 -34 c-754 -558 -961 -710 -968 -710 -7 0 -11
437 -5 530 1 15 32 53 146 180 52 57 119 133 271 305 48 55 93 105 98 111 6 6
33 36 60 67 27 31 52 57 56 57 4 0 54 -48 111 -107z m6223 -425 c28 -24 53
-45 56 -48 3 -3 21 -17 42 -32 20 -15 42 -33 50 -41 7 -7 81 -66 163 -132 83
-66 152 -122 155 -126 3 -3 39 -32 80 -64 41 -33 77 -62 80 -65 3 -3 111 -91
240 -195 129 -104 237 -191 240 -194 3 -3 50 -42 105 -86 55 -44 102 -82 105
-85 3 -3 41 -34 85 -69 44 -35 71 -62 60 -59 -63 17 -270 72 -400 108 -82 23
-157 43 -165 45 -47 10 -479 128 -500 135 -14 5 -36 12 -50 14 -14 3 -133 34
-265 70 -132 35 -276 74 -320 86 -44 12 -104 28 -134 37 -29 8 -61 16 -70 18
-29 4 -22 27 71 224 77 165 285 501 309 501 6 0 34 -19 63 -42z m-5830 -63
c15 -15 106 -160 148 -234 78 -137 226 -466 216 -477 -2 -2 -46 -13 -98 -24
-52 -12 -102 -23 -110 -25 -8 -2 -49 -11 -90 -20 -41 -8 -111 -24 -155 -35
-44 -10 -93 -21 -110 -24 -16 -3 -66 -14 -110 -25 -44 -11 -91 -22 -105 -25
-46 -9 -164 -35 -300 -66 -74 -18 -142 -33 -150 -35 -197 -43 -262 -56 -267
-51 -6 6 -8 234 -2 239 2 2 22 17 44 33 22 16 46 35 55 41 8 7 56 42 105 79
189 138 534 395 709 526 99 75 186 136 193 137 6 1 18 -6 27 -14z m11459 -131
c86 -143 186 -341 241 -478 36 -90 42 -116 29 -116 -5 0 -109 -23 -233 -51
-124 -27 -306 -68 -405 -90 -99 -22 -187 -42 -195 -44 -8 -2 -107 -24 -220
-50 -113 -25 -216 -48 -230 -51 -14 -3 -62 -14 -108 -24 -46 -11 -96 -22 -110
-25 -15 -3 -115 -25 -222 -49 -107 -24 -196 -43 -197 -42 -1 1 50 41 115 89
64 47 253 186 418 309 166 123 420 311 565 418 145 107 307 227 359 267 52 40
99 71 105 69 5 -1 45 -61 88 -132z m-17175 -241 c0 -174 -1 -320 -3 -324 -4
-5 -284 67 -293 75 -10 11 166 370 241 489 9 15 24 38 32 52 9 14 17 25 19 25
2 0 4 -143 4 -317z m13642 -58 c18 -33 56 -100 85 -150 28 -49 54 -97 58 -105
4 -8 18 -34 31 -58 23 -40 29 -69 41 -212 3 -30 7 -77 10 -105 5 -45 -2 -33
-65 110 -39 88 -77 174 -84 190 -8 17 -28 64 -45 105 -18 41 -36 84 -41 95
-40 93 -90 217 -90 221 0 3 -6 20 -14 37 -15 31 -84 207 -93 237 -4 13 89
-152 207 -365z m-7144 -100 c7 -5 20 -17 30 -25 199 -160 354 -295 355 -308 5
-77 8 -213 14 -485 l6 -318 -98 6 c-53 3 -98 7 -99 8 -1 1 -5 36 -8 77 -4 41
-8 86 -10 100 -2 14 -6 50 -10 80 -9 74 -24 159 -42 250 -9 41 -18 86 -20 100
-18 94 -112 398 -170 545 l-7 20 23 -20 c14 -11 30 -24 36 -30z m4614 -206
c41 -11 199 -53 350 -94 151 -40 284 -75 295 -78 11 -3 79 -22 150 -42 72 -19
137 -37 145 -39 43 -11 701 -188 740 -199 25 -8 135 -38 246 -67 l201 -53 259
-209 c142 -115 261 -212 263 -214 2 -2 -2 -23 -8 -46 -7 -24 -13 -64 -14 -90
l-2 -46 -110 -53 c-60 -29 -171 -81 -245 -116 -74 -35 -148 -71 -164 -80 -32
-18 -43 -19 -336 -27 -329 -10 -519 -16 -665 -21 -278 -9 -562 -17 -655 -20
-164 -5 -583 -18 -632 -19 -29 -2 -55 -9 -67 -20 -19 -17 -19 -16 -27 71 -16
168 -9 584 11 703 2 14 7 43 10 65 3 22 7 51 10 65 2 14 7 43 10 65 12 86 67
307 110 443 25 78 47 142 48 142 1 0 36 -9 77 -21z m-11269 -39 l157 -43 1
-500 c0 -564 1 -570 73 -652 21 -24 64 -56 96 -72 l57 -28 883 -5 c770 -4 878
-7 850 -19 -18 -8 -68 -31 -112 -53 -88 -43 -41 -38 -551 -53 -104 -3 -251 -8
-325 -10 -74 -3 -223 -7 -330 -10 -107 -3 -260 -7 -340 -10 -80 -2 -221 -7
-315 -10 -93 -3 -247 -8 -341 -11 -137 -4 -172 -3 -176 8 -9 25 -13 124 -13
348 1 239 9 362 35 510 5 30 12 71 15 90 5 41 12 79 26 140 6 25 12 52 14 60
15 72 97 339 112 363 3 4 10 7 17 4 6 -2 81 -23 167 -47z m6323 -188 c49 -170
99 -424 112 -559 3 -32 7 -71 10 -87 l5 -28 -173 7 c-95 4 -198 9 -228 10 -30
2 -127 6 -215 10 -88 4 -191 8 -230 10 -38 2 -135 6 -215 10 -80 4 -172 8
-205 10 -33 2 -138 6 -233 10 -95 4 -181 8 -190 10 -9 2 -19 4 -22 4 -4 1 -5
320 -1 382 1 9 7 16 14 16 6 0 84 17 172 37 89 20 170 38 180 40 11 3 43 10
70 16 28 6 61 14 74 16 12 3 53 12 90 20 84 20 79 19 191 44 52 11 100 22 105
24 6 1 28 6 50 10 22 5 65 14 95 22 30 7 69 16 85 19 17 3 116 25 220 49 145
33 192 40 197 31 4 -7 23 -67 42 -133z m11354 61 c43 -141 93 -362 107 -463 3
-25 8 -63 12 -85 18 -114 27 -263 27 -440 0 -149 -11 -381 -19 -394 -1 -3 -6
-34 -9 -69 -8 -84 -51 -309 -75 -397 -53 -195 -87 -295 -98 -295 -3 0 -86 25
-186 56 -100 31 -261 80 -357 109 -96 29 -269 83 -385 118 -115 36 -232 72
-260 80 -27 9 -198 61 -380 117 -181 56 -375 115 -430 132 -111 33 -124 40
-193 101 -26 23 -76 67 -111 97 -35 30 -69 60 -75 65 -6 6 -43 37 -81 69 -39
33 -75 64 -80 70 -6 6 -39 36 -75 66 -36 30 -72 62 -81 70 -9 8 -19 38 -22 65
-3 28 -9 58 -12 68 -10 24 -14 20 275 233 298 220 281 209 355 225 72 15 55
11 195 44 63 15 129 29 145 31 17 3 44 9 60 14 27 7 142 33 203 45 13 2 31 6
40 9 9 3 28 7 42 10 14 3 66 14 115 25 193 44 451 102 475 107 14 3 45 10 70
15 25 6 56 13 70 15 14 3 63 14 110 25 47 11 96 22 110 25 14 3 32 8 40 10 8
2 58 13 110 24 192 43 226 50 280 63 30 8 58 12 62 10 3 -1 15 -33 26 -70z
m-2951 -110 c-3 -5 -7 -32 -11 -61 -12 -106 -37 -277 -42 -294 -6 -19 -127
-45 -167 -34 -28 7 -40 -16 182 344 18 28 35 52 37 52 3 0 3 -3 1 -7z m-482
-208 l95 -170 -50 -14 c-60 -16 -120 -8 -121 17 0 9 -2 24 -4 32 -3 16 -11 97
-21 220 -4 41 -9 79 -12 84 -2 5 0 7 7 5 6 -2 54 -81 106 -174z m-477 -189
c46 -13 84 -26 86 -27 1 -2 31 -40 67 -84 36 -44 64 -86 61 -93 -4 -14 -29
-16 -34 -3 -1 5 -65 59 -142 120 -76 61 -135 111 -130 111 5 0 46 -11 92 -24z
m1397 15 c-19 -16 -289 -216 -309 -227 -17 -10 -24 -5 -57 38 -32 43 -36 54
-28 80 4 17 10 32 11 32 3 2 136 33 173 40 11 3 43 10 70 16 28 6 58 13 69 16
10 2 20 5 22 6 1 2 15 5 30 6 17 1 24 -1 19 -7z m-10210 -316 c88 -4 187 -8
220 -10 33 -2 134 -7 225 -10 91 -4 188 -9 215 -10 28 -1 124 -6 215 -10 91
-4 192 -8 225 -10 33 -2 134 -7 225 -10 91 -4 167 -9 170 -12 7 -6 1 -373 -6
-384 -6 -10 -6 -10 -249 36 -99 19 -252 48 -340 64 -206 39 -192 36 -320 61
-60 11 -123 23 -140 26 -16 3 -48 9 -70 14 -22 5 -60 12 -85 15 -24 4 -47 8
-50 10 -3 2 -26 6 -50 10 -25 3 -72 12 -105 20 -33 7 -78 16 -100 19 -32 5
-80 14 -115 21 -3 1 -24 5 -47 9 l-41 7 3 72 c2 40 4 75 4 78 1 3 13 5 29 3
15 -1 99 -6 187 -9z m2076 -94 l35 -1 -4 -167 c-2 -92 -7 -170 -11 -173 -4 -3
-27 -33 -50 -68 -40 -60 -44 -63 -73 -57 -17 4 -38 8 -47 10 -17 2 -17 -16
-10 307 l4 158 60 -4 c33 -2 76 -5 96 -5z m1167 -170 c-18 -23 -62 -75 -138
-160 -128 -145 -116 -138 -125 -76 -17 136 -17 139 7 166 58 65 150 100 236
91 28 -4 31 -6 20 -21z m5756 -158 l17 -33 -98 -1 c-54 -1 -133 -2 -175 -3
-42 -1 -75 1 -72 6 3 4 9 8 14 8 4 0 68 29 142 64 l133 63 11 -36 c6 -20 18
-51 28 -68z m1032 40 c33 -28 75 -66 94 -83 19 -16 63 -54 97 -82 34 -29 61
-54 59 -55 -1 -2 -52 13 -112 31 -60 19 -134 42 -165 51 -30 9 -62 21 -69 25
-18 11 -19 112 -2 153 14 33 17 32 98 -40z m-12412 -19 c9 -21 13 -40 9 -45
-4 -4 -91 -10 -193 -13 l-185 -5 100 49 c92 45 106 49 176 49 l75 1 18 -36z
m995 -22 c3 0 17 0 31 -1 25 -1 33 -7 144 -104 33 -29 66 -58 75 -65 18 -15
21 -16 -64 11 -27 8 -97 29 -155 47 -58 17 -111 33 -117 36 -18 5 -16 45 2 71
13 18 20 20 46 13 17 -5 34 -9 38 -8z m406 -58 c11 -2 40 -7 65 -10 25 -3 74
-10 110 -15 36 -5 76 -12 90 -14 14 -2 43 -6 65 -9 22 -4 58 -9 79 -11 22 -3
51 -7 65 -10 14 -2 76 -11 136 -20 61 -9 121 -18 135 -20 14 -2 41 -6 60 -9
69 -9 196 -27 220 -31 14 -2 54 -9 90 -14 36 -6 85 -13 110 -16 25 -3 70 -9
100 -14 30 -6 75 -12 100 -16 79 -10 188 -26 211 -30 13 -3 41 -7 64 -10 86
-11 126 -17 235 -34 36 -6 88 -13 115 -16 28 -3 59 -8 71 -10 12 -3 39 -7 60
-10 21 -3 53 -8 69 -10 17 -3 53 -7 80 -10 28 -3 58 -8 69 -12 19 -5 19 -6 1
-98 -21 -111 -115 -415 -128 -415 -8 0 -358 106 -477 144 -25 9 -180 56 -345
106 -165 51 -372 114 -460 142 -88 27 -167 51 -175 53 -8 2 -89 27 -180 55
-91 28 -174 53 -185 55 -11 3 -31 9 -45 14 -14 6 -83 28 -155 51 -71 22 -137
46 -146 53 -9 6 -45 37 -80 68 -35 31 -86 76 -114 99 l-50 43 60 -8 c33 -4 68
-9 80 -11z m4568 -63 c20 -22 44 -58 53 -78 21 -47 23 -166 5 -211 -13 -32
-14 -32 -90 -33 -42 -1 -94 -2 -116 -4 -132 -10 -255 -15 -255 -9 0 5 59 76
125 150 6 6 27 31 47 55 145 173 160 188 178 179 9 -5 33 -27 53 -49z m-5788
-69 c22 -15 44 -30 49 -34 5 -3 -42 -62 -105 -130 -63 -67 -124 -133 -134
-145 -23 -27 -39 -30 -25 -5 5 9 32 85 59 168 75 224 67 209 94 190 12 -9 40
-29 62 -44z m-215 41 c0 -5 -44 -138 -97 -296 -87 -255 -102 -293 -136 -330
-21 -23 -57 -62 -79 -87 -36 -40 -199 -216 -253 -274 -11 -12 -67 -73 -125
-136 -58 -63 -112 -122 -120 -130 -8 -8 -37 -40 -65 -70 -27 -31 -100 -109
-161 -175 -61 -66 -130 -142 -155 -169 -24 -27 -57 -63 -74 -80 -16 -18 -70
-76 -120 -130 -49 -54 -103 -113 -120 -131 -16 -17 -70 -75 -119 -128 l-88
-97 -37 29 c-20 16 -83 76 -142 133 -280 274 -500 574 -674 921 l-77 152 135
65 c335 162 402 195 407 196 3 0 77 36 165 78 88 43 192 93 230 111 39 18 173
83 299 144 126 61 230 111 231 111 1 0 87 41 191 91 104 50 236 114 294 141
l105 50 160 5 c88 3 161 5 162 6 6 6 263 6 263 0z m11414 -5 c-4 -7 -51 -140
-104 -296 l-96 -282 -71 -78 c-39 -42 -81 -89 -94 -103 -47 -50 -204 -222
-229 -248 -14 -15 -65 -71 -115 -126 -49 -54 -106 -115 -125 -136 -30 -32
-135 -146 -218 -237 -14 -15 -67 -72 -118 -128 -52 -55 -102 -110 -111 -121
-10 -11 -57 -62 -105 -114 -47 -52 -98 -107 -113 -124 -15 -16 -75 -80 -132
-142 l-104 -112 -32 27 c-283 245 -527 535 -722 857 -73 121 -186 344 -180
355 6 10 67 40 455 225 118 57 309 148 424 204 114 55 209 101 211 101 2 0 97
46 211 101 115 56 254 123 309 149 109 52 328 157 415 199 51 25 67 27 195 30
77 1 140 3 141 4 1 1 73 3 159 5 127 3 155 1 149 -10z m812 0 c8 -13 10 -35
19 -188 3 -58 8 -132 10 -165 7 -77 13 -87 -152 235 l-23 45 33 17 c17 9 46
28 62 42 34 29 41 31 51 14z m-608 -55 l53 -30 -28 -31 c-15 -16 -66 -71 -113
-122 -47 -50 -93 -102 -102 -113 -27 -33 -22 -14 36 158 72 213 65 199 85 182
9 -8 40 -28 69 -44z m-12488 39 c0 -2 -46 -25 -102 -51 -147 -69 -309 -147
-493 -236 -187 -90 -366 -176 -520 -250 -60 -29 -168 -80 -240 -115 -71 -34
-182 -87 -245 -118 -63 -30 -137 -65 -165 -78 l-49 -23 -14 32 c-40 91 -122
368 -153 512 -7 33 -14 65 -15 70 -12 57 -33 190 -29 193 4 5 28 6 405 17 124
4 266 8 315 10 50 2 200 6 335 10 135 4 283 9 330 10 47 1 193 6 325 10 132 4
241 7 242 8 3 3 73 2 73 -1z m11410 0 c0 -1 -37 -20 -82 -41 -46 -21 -146 -69
-223 -106 -77 -37 -196 -94 -265 -128 -69 -33 -174 -83 -235 -112 -60 -29
-177 -85 -260 -125 -82 -40 -190 -91 -240 -115 -49 -24 -148 -71 -220 -105
-201 -96 -315 -150 -319 -150 -5 0 -40 89 -76 195 -57 166 -119 428 -145 608
l-6 48 23 -15 c17 -11 45 -14 113 -11 50 2 185 6 300 10 116 3 269 8 340 10
72 2 220 7 330 10 110 3 252 8 315 10 63 2 216 7 340 10 124 4 226 7 227 8 3
4 83 3 83 -1z m2087 -106 c150 -46 281 -90 292 -98 10 -7 48 -38 82 -68 186
-162 216 -188 243 -211 16 -13 34 -29 40 -34 6 -6 61 -53 121 -105 61 -52 112
-97 115 -100 3 -3 37 -32 75 -65 39 -33 72 -62 75 -65 3 -3 52 -46 110 -95 58
-50 107 -92 110 -95 8 -8 218 -191 370 -322 74 -64 149 -129 167 -145 17 -15
50 -44 73 -63 23 -19 55 -46 71 -60 l29 -25 -81 -100 c-108 -133 -377 -399
-514 -508 -189 -151 -571 -395 -589 -377 -2 3 -33 61 -69 130 -35 69 -99 193
-142 275 -43 83 -111 215 -153 295 -41 80 -107 208 -147 285 -40 77 -109 212
-155 300 -45 88 -104 201 -130 250 -26 50 -91 173 -143 276 l-96 185 -6 105
c-3 57 -7 131 -10 164 -2 33 -7 116 -11 185 -3 69 -7 135 -9 148 -1 12 1 22 4
22 3 0 128 -38 278 -84z m-11856 23 l59 -22 1 -51 c1 -51 4 -99 13 -190 2 -27
1 -45 -4 -40 -20 22 -160 306 -155 314 9 14 21 13 86 -11z m-200 -27 c6 -6
102 -193 245 -472 27 -52 49 -104 50 -115 1 -11 5 -74 8 -140 4 -66 9 -147 11
-180 2 -33 7 -105 10 -160 3 -55 8 -131 10 -170 3 -38 7 -110 10 -160 3 -49 7
-128 10 -175 9 -133 14 -207 20 -315 3 -55 8 -134 11 -175 5 -76 10 -166 19
-320 3 -47 7 -112 9 -145 3 -33 7 -121 11 -195 4 -74 9 -138 12 -142 2 -5 -2
-8 -9 -9 -7 0 -24 -2 -38 -4 -129 -21 -261 -29 -470 -29 -150 0 -316 8 -380
18 -14 2 -47 7 -75 11 -27 3 -66 9 -85 11 -45 7 -175 32 -220 44 -19 5 -46 11
-60 14 -99 19 -490 149 -490 163 0 7 138 420 150 448 5 11 42 121 84 245 41
124 134 398 206 610 72 212 163 480 201 595 39 116 80 224 92 241 12 18 69 82
127 145 134 143 210 226 244 264 15 17 44 48 65 70 l39 40 88 -3 c49 -2 92 -7
95 -10z m11408 2 c7 -8 186 -352 263 -507 32 -64 34 -74 43 -232 7 -122 14
-239 19 -330 3 -33 7 -109 11 -170 3 -60 8 -137 10 -170 3 -33 7 -98 10 -145
9 -147 15 -252 20 -345 6 -108 15 -250 20 -325 2 -30 7 -109 10 -175 4 -66 8
-138 10 -160 2 -22 7 -101 10 -176 l7 -137 -64 -7 c-34 -4 -71 -9 -81 -11 -65
-12 -201 -18 -387 -19 -297 0 -376 8 -725 71 -105 19 -346 90 -489 144 l-84
32 130 381 c71 210 131 389 133 397 3 8 13 40 24 70 11 30 96 280 189 555 251
739 249 733 278 768 21 25 157 174 244 267 8 9 59 64 114 123 l99 107 51 -3
c28 -2 62 0 76 3 31 8 48 7 59 -6z m-10973 -58 c22 -8 82 -30 134 -49 52 -19
217 -78 365 -131 149 -53 279 -101 290 -106 18 -7 71 -52 185 -154 19 -17 64
-56 100 -86 36 -30 70 -59 76 -65 33 -30 144 -126 174 -151 19 -16 37 -31 40
-35 3 -3 57 -50 120 -104 63 -54 117 -101 120 -104 3 -4 68 -60 145 -126 77
-66 156 -134 175 -151 59 -53 214 -187 249 -216 l32 -28 -23 -32 c-92 -131
-381 -425 -532 -543 -21 -16 -48 -38 -60 -48 -43 -38 -244 -177 -331 -229
-110 -66 -246 -140 -250 -136 -3 3 -74 140 -235 453 -56 110 -131 254 -165
320 -34 66 -101 194 -147 285 -47 91 -121 235 -166 320 -343 665 -329 636
-331 700 -2 30 -4 71 -6 90 -2 19 -6 96 -10 170 -4 74 -9 143 -10 153 -5 21
10 21 61 3z m794 -123 c0 3 28 -4 63 -15 34 -11 89 -28 122 -38 33 -10 148
-45 255 -78 432 -133 566 -174 580 -178 61 -15 837 -258 843 -263 12 -11 -29
-106 -45 -105 -11 1 -1002 360 -1328 480 -52 20 -151 56 -220 80 -69 25 -141
51 -160 59 -19 7 -52 20 -73 27 -21 7 -45 21 -55 32 -16 20 -16 20 1 7 9 -7
17 -11 17 -8z m11585 -48 c28 -7 158 -47 290 -88 132 -41 256 -80 275 -85 48
-14 204 -62 625 -192 246 -76 307 -95 390 -119 35 -11 69 -22 74 -25 11 -7
-29 -107 -101 -255 -98 -200 -263 -465 -283 -454 -7 5 -40 31 -72 59 -32 28
-134 117 -228 199 -93 81 -197 171 -230 200 -33 29 -76 65 -95 81 -19 16 -39
34 -45 40 -5 6 -59 53 -120 104 -60 52 -130 112 -155 134 -52 47 -51 45 -302
262 -262 227 -245 207 -152 178 44 -14 102 -31 129 -39z m-7218 -252 c35 -71
38 -84 40 -174 2 -81 -2 -110 -23 -172 -43 -128 -32 -129 -181 19 -123 121
-208 217 -261 291 l-22 31 72 17 c40 9 84 19 98 22 14 2 59 12 100 22 137 32
133 33 177 -56z m-3962 -12 c11 -5 58 -23 105 -39 147 -52 809 -292 945 -342
72 -26 172 -63 222 -81 l93 -33 -62 -115 c-60 -115 -170 -294 -211 -345 l-22
-26 -95 81 c-52 45 -109 93 -125 108 -17 14 -62 53 -100 86 -39 33 -72 62 -75
65 -3 3 -36 32 -75 65 -38 33 -72 63 -75 66 -3 3 -59 52 -125 108 -160 138
-236 204 -249 216 -6 6 -63 55 -126 109 -63 55 -116 103 -118 107 -3 8 27 -2
93 -30z m-2495 -248 c-5 -10 -19 -45 -29 -78 -11 -33 -108 -321 -216 -640
-108 -319 -239 -706 -291 -859 -51 -153 -95 -281 -97 -283 -7 -6 -273 135
-387 205 -143 89 -305 206 -305 220 0 12 63 83 279 317 51 55 104 112 117 126
13 15 65 71 114 124 50 54 97 105 105 115 12 14 90 98 250 271 14 15 60 65
102 112 43 46 90 98 105 114 124 133 220 238 233 254 19 24 33 25 20 2z
m11346 -179 c-35 -104 -113 -335 -174 -514 -61 -179 -174 -514 -252 -745 -78
-231 -146 -424 -150 -429 -25 -26 -536 269 -677 391 l-33 28 53 56 c28 31 93
100 142 154 50 54 101 110 115 125 14 15 63 69 110 120 47 51 99 108 115 125
17 18 68 75 115 126 47 51 96 105 110 119 29 31 210 227 225 244 36 40 229
251 274 298 29 31 60 66 68 78 8 12 17 19 19 17 2 -2 -25 -89 -60 -193z
m-9896 -219 c73 -143 154 -300 180 -350 26 -49 93 -180 150 -290 57 -110 129
-249 160 -310 203 -390 261 -506 256 -514 -10 -16 -310 -129 -451 -170 -144
-41 -334 -86 -339 -80 -2 2 -7 60 -11 129 -13 228 -14 254 -19 330 -3 41 -8
120 -11 175 -3 55 -7 132 -10 170 -3 39 -7 111 -10 160 -3 50 -7 122 -10 160
-3 39 -7 115 -10 170 -3 55 -8 129 -10 165 -5 76 -12 193 -20 340 -4 58 -8
134 -11 170 l-5 65 19 -30 c10 -16 78 -147 152 -290z m11297 215 c28 -52 90
-171 138 -265 48 -93 118 -228 155 -300 153 -295 222 -429 305 -590 196 -381
248 -481 258 -492 24 -32 -460 -209 -708 -259 -91 -18 -85 -20 -86 22 -1 22
-2 53 -4 69 -2 27 -10 165 -20 340 -2 33 -6 98 -9 145 -4 47 -8 132 -11 190
-3 58 -7 132 -10 165 -3 33 -7 103 -10 155 -3 52 -8 131 -10 175 -3 44 -7 118
-10 165 -3 47 -7 119 -10 160 -3 41 -7 113 -10 160 -3 47 -7 125 -10 175 -3
49 -4 87 -2 85 2 -3 27 -48 54 -100z"/>
<path d="M10468 12685 c-2 -53 0 -104 3 -113 5 -13 22 -16 90 -18 217 -4 543
-15 549 -19 21 -13 30 19 33 118 3 92 1 107 -12 108 -108 5 -205 8 -413 14
l-247 6 -3 -96z"/>
<path d="M11369 12691 c0 -36 -2 -83 -3 -104 -1 -21 1 -42 4 -47 3 -5 155 -12
337 -15 l331 -5 4 82 c2 46 1 96 -2 113 l-6 29 -154 3 c-85 1 -235 4 -332 6
l-178 4 -1 -66z"/>
<path d="M1510 18582 c-73 -36 -70 9 -70 -902 0 -756 1 -817 18 -849 9 -19 29
-44 45 -55 26 -19 42 -20 327 -21 164 0 301 -2 303 -5 5 -5 98 -164 130 -220
41 -74 69 -120 72 -120 4 0 97 157 106 180 4 8 27 49 52 90 l46 75 328 0 c327
0 328 0 361 23 17 13 38 33 44 45 10 17 13 217 13 846 1 783 0 826 -18 862
-36 73 11 69 -904 69 -759 0 -821 -1 -853 -18z m856 -719 c239 -119 431 -220
427 -224 -14 -13 -867 -438 -871 -434 -3 2 -5 832 -3 868 1 4 4 7 7 7 3 0 201
-98 440 -217z"/>
<path d="M16564 17714 c-34 -18 -52 -38 -64 -69 -6 -17 -10 -322 -10 -848 0
-798 1 -823 20 -854 36 -60 46 -61 368 -62 160 0 296 -2 301 -5 7 -5 81 -129
163 -276 11 -19 25 -41 32 -48 15 -16 9 -24 126 181 l84 147 56 0 c30 1 175 1
321 1 292 0 310 3 353 62 20 27 20 39 20 860 l0 833 -22 32 c-13 18 -33 38
-45 45 -32 18 -1667 19 -1703 1z m1282 -503 c14 -1 14 -881 0 -882 -6 -1 -206
-2 -443 -3 l-433 -2 -1 31 c-5 274 0 848 9 854 8 4 813 7 868 2z"/>
<path d="M2223 16247 c-4 -6 -8 -23 -9 -37 -2 -14 -5 -43 -8 -65 -3 -22 -8
-62 -11 -90 -3 -27 -7 -66 -10 -85 -3 -19 -7 -62 -10 -95 -3 -33 -7 -80 -10
-105 -13 -128 -16 -190 -8 -191 4 0 17 -2 28 -4 11 -3 58 -6 105 -7 l84 -3 2
30 c1 17 4 62 8 100 4 39 9 95 12 125 9 107 23 235 29 270 12 70 15 129 8 133
-4 3 -30 8 -58 11 -27 3 -71 9 -98 14 -32 7 -49 6 -54 -1z"/>
<path d="M2133 15127 c0 -199 16 -441 31 -465 3 -6 29 -5 63 2 32 7 61 13 66
14 4 0 27 4 51 7 l43 7 -8 36 c-13 61 -23 256 -22 440 l1 172 -37 1 c-20 0
-70 2 -112 5 l-77 4 1 -223z"/>
<path d="M17289 15308 c0 -13 -2 -30 -3 -38 -2 -8 -6 -53 -10 -100 -4 -47 -9
-98 -11 -115 -4 -33 -22 -183 -30 -255 -3 -25 -8 -57 -11 -72 -6 -32 -3 -34
71 -43 33 -3 79 -10 102 -14 52 -10 47 -20 68 164 3 28 8 61 10 75 2 14 7 57
10 95 3 39 8 81 10 95 3 14 7 61 11 105 3 44 8 83 10 87 7 12 -11 17 -82 23
-38 3 -86 8 -106 11 -34 4 -38 3 -39 -18z"/>
<path d="M17179 14463 c0 -10 -2 -25 -4 -33 -28 -127 -47 -216 -51 -233 -7
-38 -75 -272 -89 -310 -8 -20 -15 -39 -15 -41 0 -3 24 -12 53 -21 28 -9 61
-20 72 -25 11 -5 35 -13 53 -19 31 -10 33 -8 45 22 15 34 102 341 112 392 5
28 8 41 20 98 32 147 31 151 -11 155 -26 2 -100 15 -161 28 -17 3 -23 0 -24
-13z"/>
<path d="M2308 14451 c-43 -10 -78 -15 -78 -12 0 3 -5 0 -11 -6 -8 -8 -8 -26
0 -64 6 -30 13 -64 16 -76 23 -125 134 -461 170 -515 10 -15 19 -12 100 28 50
24 94 45 99 47 5 1 -8 44 -28 94 -47 119 -87 250 -122 401 -32 140 -20 131
-146 103z"/>
<path d="M2630 13619 c-41 -28 -82 -54 -90 -59 -37 -21 243 -318 434 -460 31
-22 59 -40 64 -40 9 0 122 166 122 178 0 4 -27 26 -59 49 -59 43 -159 132
-240 214 -49 49 -70 73 -115 132 -16 20 -31 37 -35 36 -3 0 -40 -23 -81 -50z"/>
<path d="M16890 13538 c-66 -129 -154 -258 -235 -346 l-63 -68 75 -77 c41 -42
78 -77 82 -77 9 0 99 96 147 156 85 108 244 380 244 417 0 13 -44 35 -186 93
-6 3 -34 -41 -64 -98z"/>
<path d="M3330 13124 c-6 -14 -10 -28 -10 -32 0 -8 -38 -109 -51 -133 -6 -14
2 -20 44 -33 120 -37 276 -56 516 -60 l141 -3 0 114 0 113 -137 1 c-202 2
-285 10 -407 40 -43 10 -80 19 -83 19 -2 0 -8 -12 -13 -26z"/>
<path d="M5567 13144 c-3 -2 -330 -13 -415 -14 l-63 0 5 -107 c2 -60 5 -111 5
-115 1 -4 45 -5 99 -2 175 7 365 13 470 14 l103 0 -3 112 -3 113 -98 0 c-54 0
-99 0 -100 -1z"/>
<path d="M4697 13114 c-1 -1 -92 -5 -202 -9 -209 -8 -286 -11 -296 -14 -5 -1
-5 -108 0 -204 1 -20 -18 -19 406 -2 39 1 114 4 168 5 82 2 97 5 98 19 1 17
-2 140 -5 181 -1 25 -2 25 -84 25 -46 0 -84 -1 -85 -1z"/>
<path d="M16415 12991 c-21 -19 -174 -91 -245 -115 -68 -23 -199 -54 -291 -70
l-36 -6 8 -58 c4 -31 10 -70 13 -87 2 -16 5 -40 5 -53 1 -22 4 -23 49 -17 85
12 215 43 310 74 94 31 294 124 311 145 6 7 -10 42 -47 103 -32 51 -59 92 -62
93 -4 0 -10 -4 -15 -9z"/>
<path d="M15568 12785 c-3 -3 -341 -15 -556 -19 l-53 -1 3 -110 3 -110 155 2
c85 1 220 4 300 6 80 3 162 6 183 6 l38 1 -6 107 c-3 59 -8 109 -11 112 -5 6
-51 11 -56 6z"/>
</g>
</svg>
