<?xml version="1.0" encoding="UTF-8" standalone="no"?>
<!-- Created with Inkscape (http://www.inkscape.org/) -->

<svg
   xmlns:dc="http://purl.org/dc/elements/1.1/"
   xmlns:cc="http://creativecommons.org/ns#"
   xmlns:rdf="http://www.w3.org/1999/02/22-rdf-syntax-ns#"
   xmlns:svg="http://www.w3.org/2000/svg"
   xmlns="http://www.w3.org/2000/svg"
   xmlns:sodipodi="http://sodipodi.sourceforge.net/DTD/sodipodi-0.dtd"
   xmlns:inkscape="http://www.inkscape.org/namespaces/inkscape"
   id="svg3055"
   version="1.1"
   inkscape:version="0.91 r13725"
   width="446.74365"
   height="365.91489"
   sodipodi:docname="perroverdebtt.svg"
   inkscape:export-filename="/home/aldolo/Escritorio/SelloB.png"
   inkscape:export-xdpi="600"
   inkscape:export-ydpi="600">
  <metadata
     id="metadata3061">
    <rdf:RDF>
      <cc:Work
         rdf:about="">
        <dc:format>image/svg+xml</dc:format>
        <dc:type
           rdf:resource="http://purl.org/dc/dcmitype/StillImage" />
        <dc:title />
      </cc:Work>
    </rdf:RDF>
  </metadata>
  <defs
     id="defs3059" />
  <sodipodi:namedview
     pagecolor="#ffffff"
     bordercolor="#666666"
     borderopacity="1"
     objecttolerance="10"
     gridtolerance="10"
     guidetolerance="10"
     inkscape:pageopacity="0"
     inkscape:pageshadow="2"
     inkscape:window-width="1440"
     inkscape:window-height="851"
     id="namedview3057"
     showgrid="false"
     fit-margin-top="0"
     fit-margin-left="0"
     fit-margin-right="0"
     fit-margin-bottom="0"
     inkscape:zoom="0.91254753"
     inkscape:cx="516.92792"
     inkscape:cy="72.449925"
     inkscape:window-x="0"
     inkscape:window-y="25"
     inkscape:window-maximized="1"
     inkscape:current-layer="layer2" />
  <g
     inkscape:groupmode="layer"
     id="layer2"
     inkscape:label="Dibujo"
     style="display:inline"
     transform="translate(-39.795517,-70.145884)">
    <path
       sodipodi:nodetypes="ccccc"
       inkscape:connector-curvature="0"
       id="path4308"
       d="m 414.52285,237.50793 c 0.88409,15.67764 -1.87826,35.15635 1.93791,46.20316 l 7.5707,1.83892 c -3.17212,-13.86001 -1.48892,-31.05649 -1.1126,-46.63954 z"
       style="display:inline;fill:#f58428;fill-opacity:1;stroke:#000000;stroke-width:2.5;stroke-linecap:butt;stroke-linejoin:miter;stroke-miterlimit:4;stroke-dasharray:none;stroke-opacity:1" />
    <path
       style="display:inline;fill:#fefe58;fill-opacity:1;stroke:#000000;stroke-width:2.5;stroke-linecap:butt;stroke-linejoin:miter;stroke-miterlimit:4;stroke-dasharray:none;stroke-opacity:1"
       d="m 383.78509,228.85492 0.28687,0.19961 1.00289,2.19587 0.0827,0.49639 c 0,0 1.61966,-0.52555 2.19203,-1.09257 0.14149,-0.14018 0.24733,-0.33485 0.25454,-0.51896 0.0176,-0.45068 -0.2941,-0.83783 -0.52584,-1.21319 -0.20521,-0.33253 -0.38209,-0.73924 -0.75551,-0.90396 -0.23926,-0.10549 -0.5502,-0.0602 -0.82141,0.003 -0.61535,0.14462 -1.71637,0.83343 -1.71637,0.83343 z"
       id="path3888"
       inkscape:connector-curvature="0"
       sodipodi:nodetypes="ccccaaaaac" />
    <path
       style="display:inline;fill:#77ac5c;fill-opacity:1;stroke:#000000;stroke-width:2.5;stroke-linecap:butt;stroke-linejoin:miter;stroke-miterlimit:4;stroke-dasharray:none;stroke-opacity:1"
       d="m 341.14658,166.24651 -18.73406,5.68152 0,0 -4.32989,-9.25403 c 0,0 8.74041,-3.98558 13.28768,-5.50445 1.41024,-0.47104 2.85646,-0.8478 4.31959,-1.11217 0.15072,-0.0272 0.30215,-0.0517 0.45407,-0.0729 z"
       id="path4284"
       transform="translate(39.795517,70.145884)"
       inkscape:connector-curvature="0"
       sodipodi:nodetypes="ccccsccc" />
    <path
       style="display:inline;fill:#fefe58;fill-opacity:1;stroke:#000000;stroke-width:2.5;stroke-linecap:butt;stroke-linejoin:miter;stroke-miterlimit:4;stroke-dasharray:none;stroke-opacity:1"
       d="m 336.14397,155.98447 c 0.35249,-0.0492 0.70767,-0.0807 1.06294,-0.0877 0.85961,-0.0172 1.73484,-0.0189 2.57381,0.16911 0.85279,0.19113 1.6813,0.52617 2.43931,0.96116 0.70041,0.40194 1.40413,0.86372 1.90401,1.49795 0.60394,0.76627 0.92931,1.72894 1.22224,2.65958 0.16175,0.51395 0.33002,1.05343 0.28784,1.59058 -0.0342,0.43536 -0.16304,0.89262 -0.43164,1.23695 -0.65762,0.84304 -1.72202,1.2877 -2.68018,1.76216 -0.36209,0.17912 -1.14335,0.40183 -1.14335,0.40183 l -0.23237,0.0705 z"
       id="path3984"
       transform="translate(39.795517,70.145884)"
       inkscape:connector-curvature="0"
       sodipodi:nodetypes="cccssccscccc" />
    <path
       style="fill:#000000;fill-opacity:1;stroke:#000000;stroke-width:0.34365115;stroke-linecap:butt;stroke-linejoin:miter;stroke-miterlimit:4;stroke-dasharray:none;stroke-opacity:1"
       d="m 118.45957,337.4371 c 2.70251,10.03682 10.20029,27.26817 41.70026,85.80597 1.23623,1.32876 2.05015,2.91089 5.09969,3.15164 l 16.95229,0.17642 0.64224,-7.93218 c 10.05963,6.94925 19.88653,7.14897 29.56475,3.03748 l 0.20251,4.65746 c 10.25837,-1.88845 16.36398,0.37588 32.39974,-7.28994 9.49707,2.80359 18.8007,6.91296 29.76726,-0.20251 l 9.71992,-0.20249 c 16.35761,9.90833 31.06389,6.13419 44.75215,-6.07495 4.87277,10.53671 5.02596,25.3014 45.15713,4.25247 0.70125,4.46994 -0.0345,11.81393 -0.40499,18.42735 8.51469,-0.83926 17.0617,-1.77551 26.32479,-4.85996 l -0.20251,5.46746 c 12.62357,-2.42296 25.39444,-3.96209 37.6647,-8.50493 0.98901,-10.83514 -0.21815,-24.96454 -0.6075,-37.86721 l 8.90996,-3.64497 -0.20253,-39.08218 -11.9474,4.04996 c 0,0 2.11254,4.00923 -2.22747,-9.51742 -4.34003,-13.52666 -19.02918,-7.53157 -27.94479,-3.84747 -4.46738,-4.65663 -12.44443,-8.30766 -20.85733,-2.42998 -14.12644,-11.62926 -32.09988,-17.43309 -59.53452,-8.90992 l 2.63248,44.95463 c -7.05278,-10.18194 -15.33815,-18.86164 -34.42473,-14.37738 -0.64726,-10.71299 -1.08291,-21.4495 -5.06246,-31.79224 -11.94175,-0.77725 -23.3484,-2.71386 -37.4622,1.21499 1.55023,9.07924 3.35416,18.09505 3.44248,27.53977 -3.48428,-1.53331 -6.81956,-2.17264 -9.92242,-1.41749 -1.12275,-5.18815 -24.04054,5.02749 -27.53978,6.88495 -5.20945,-2.197 -11.94545,-3.37627 -19.43984,-4.04996 l 5.66994,-31.18476 c -15.39887,0.55192 -29.91998,2.21737 -47.18212,5.06246 l -0.40499,3.23998 z"
       id="path4127"
       inkscape:connector-curvature="0"
       sodipodi:nodetypes="cccccccccccccccccccczccccccccccccccc" />
    <path
       style="fill:#000000;fill-opacity:1;stroke:#000000;stroke-width:0.34365115;stroke-linecap:butt;stroke-linejoin:miter;stroke-miterlimit:4;stroke-dasharray:none;stroke-opacity:1"
       d="m 48.08356,240.25302 72.29192,-8.09994 2.42998,12.35241 c 24.16768,-12.47553 59.78885,-11.25482 69.45695,21.46482 5.16152,-0.14907 10.20393,0.77383 14.98487,4.04997 19.07028,-9.52003 32.95392,-10.97197 41.71466,-4.45496 13.38993,-6.71234 18.75827,-4.54418 30.17226,0.20249 28.22487,-4.18201 38.69311,22.36245 39.48719,33.41224 0.79409,11.04979 -1.43947,18.64146 -3.79949,23.04338 -9.29671,17.34041 -31.20014,17.33566 -42.77513,6.31888 -11.10877,6.46366 -23.2164,6.4347 -35.03223,8.30243 l -1.61999,-5.87245 c -7.47093,4.64115 -17.8923,5.34836 -28.75477,5.46746 l -0.20249,-3.23998 c -28.33945,4.67864 -32.43731,-6.52515 -39.48719,-15.79487 l -3.23997,0 c -3.93198,2.12171 -4.22405,12.43322 -5.26496,21.05984 -14.52303,7.32848 -25.1386,4.05104 -37.25969,4.85996 l 0,-6.47996 -28.147278,3.64497 -1.417492,-8.30243 -51.63709,3.23998 z"
       id="path4101"
       inkscape:connector-curvature="0"
       sodipodi:nodetypes="ccccccczscccccccccccccc" />
    <path
       style="display:inline;fill:#6a747c;fill-opacity:1;stroke:#000000;stroke-width:2.5;stroke-linecap:butt;stroke-linejoin:miter;stroke-miterlimit:4;stroke-dasharray:none;stroke-opacity:1"
       d="M 249.55859 108.24609 C 246.652 108.26174 243.7391 108.53229 240.86914 108.96484 C 236.50606 109.62241 232.11032 110.493 228.02344 112.15625 C 225.16054 113.32138 222.5063 115.00416 220.01953 116.83984 C 217.65796 118.5831 215.53995 120.65262 213.53125 122.79297 C 211.39652 125.0676 209.16662 127.34782 207.6543 130.07617 C 206.23138 132.64325 205.34924 135.51846 204.77344 138.39648 C 204.04419 142.04147 204.07801 145.81013 204.08789 149.52734 C 204.09689 152.84174 204.16261 156.18569 204.75195 159.44727 C 205.39508 163.0063 206.4444 166.51619 207.86133 169.84375 C 209.42552 173.51713 211.41013 177.03875 213.75586 180.26953 C 216.14779 183.56394 218.82293 186.73652 222.00391 189.27734 C 224.99048 191.66286 228.51097 193.31945 231.96289 194.96094 C 234.93349 196.37355 238.00071 197.62661 241.16602 198.52148 C 244.53731 199.47458 248.00729 200.20547 251.50391 200.42383 C 255.81235 200.69288 260.20587 200.55424 264.43359 199.68164 C 267.62101 199.02376 270.65529 197.71032 273.60547 196.33594 C 277.90531 194.3328 282.30679 192.29066 285.93945 189.24023 C 288.72804 186.89859 291.00162 183.93592 292.94336 180.85547 C 295.23888 177.21374 296.93649 173.18967 298.31445 169.11133 C 299.50549 165.58617 300.28388 161.91241 300.7793 158.22461 C 301.081 155.97889 301.25569 153.69282 301.08203 151.43359 C 300.8914 148.9535 300.28499 146.51078 299.61523 144.11523 C 298.87351 141.46239 297.82735 138.90184 296.80078 136.3457 C 295.93396 134.18732 295.13333 131.98384 293.97852 129.96484 C 292.76558 127.84423 291.31352 125.85049 289.70508 124.01172 C 288.00984 122.07371 286.16624 120.2282 284.08594 118.71094 C 281.2946 116.67508 278.17798 115.08304 275.00977 113.70508 C 271.83334 112.32355 268.49744 111.30184 265.13477 110.4707 C 260.97516 109.44259 256.73894 108.55948 252.46094 108.31836 C 251.49501 108.26391 250.52746 108.24088 249.55859 108.24609 z M 253.79883 118.95898 C 254.50213 118.97834 255.20332 119.0267 255.90039 119.10742 C 259.69781 119.54716 263.36545 120.85172 266.94727 122.1875 C 269.99027 123.32234 273.10135 124.48155 275.75391 126.35547 C 278.15542 128.05204 280.32493 130.17541 281.97461 132.60938 C 283.583 134.98242 284.50504 137.77604 285.39258 140.50195 C 286.2903 143.25911 286.83084 146.12863 287.29883 148.99023 C 287.84774 152.34651 288.53928 155.74114 288.34961 159.13672 C 288.21114 161.61571 287.64783 164.09471 286.76172 166.41406 C 285.718 169.14594 284.17854 171.69959 282.43945 174.05078 C 280.1976 177.08169 277.62509 179.92939 274.66016 182.25781 C 271.7482 184.54467 268.48622 186.48144 265.01562 187.77148 C 262.43923 188.72916 259.67012 189.30126 256.92188 189.34766 C 253.3757 189.40746 249.82807 188.63395 246.41602 187.66602 C 243.16282 186.74314 240.00824 185.4076 237.04883 183.77148 C 233.7322 181.93787 230.44556 179.88661 227.76953 177.20312 C 225.394 174.82099 223.52266 171.92896 221.96094 168.94922 C 220.60539 166.36287 219.59268 163.57217 218.9375 160.72656 C 218.15376 157.32254 217.97823 153.79277 217.89062 150.30078 C 217.83005 147.88658 217.68487 145.41189 218.25195 143.06445 C 218.93709 140.22835 220.32701 137.57244 221.85352 135.08594 C 223.17467 132.93394 224.74523 130.89564 226.59961 129.18164 C 228.47912 127.44441 230.71722 126.11835 232.94336 124.85547 C 234.89326 123.7493 236.95261 122.83114 239.04688 122.03125 C 241.7945 120.9818 244.58689 119.94905 247.48633 119.45508 C 249.56162 119.10151 251.68893 118.90093 253.79883 118.95898 z "
       transform="translate(39.795517,70.145884)"
       id="path3832" />
    <path
       style="display:inline;fill:#6a747c;fill-opacity:1;stroke:#000000;stroke-width:2.5;stroke-linecap:butt;stroke-linejoin:miter;stroke-miterlimit:4;stroke-dasharray:none;stroke-opacity:1"
       d="M 374.96484 170.67383 C 372.91264 170.67281 370.86331 170.76124 368.82812 170.99023 C 365.82866 171.32776 362.82056 171.90266 359.98438 172.93555 C 357.60485 173.80213 355.45194 175.20277 353.25195 176.45703 C 350.90005 177.79787 348.5246 179.12564 346.3457 180.73242 C 343.99627 182.46495 341.78724 184.40128 339.74219 186.48438 C 338.03024 188.22818 336.42244 190.09058 335.03125 192.09961 C 333.44608 194.38879 332.06983 196.83665 330.92969 199.37695 C 329.468 202.63368 328.14177 206.00516 327.45312 209.50781 C 326.7541 213.06318 326.56262 216.74553 326.82617 220.35938 C 327.1037 224.16485 328.06614 227.90858 329.13867 231.57031 C 330.29794 235.52818 331.58637 239.50656 333.57227 243.12109 C 335.55696 246.73341 338.05753 250.10418 340.93945 253.05078 C 344.37204 256.56041 348.29581 259.67167 352.57031 262.08594 C 355.7165 263.86294 359.18991 265.06218 362.68359 265.98438 C 366.31254 266.94227 370.06761 267.58356 373.82031 267.64844 C 378.75067 267.73364 383.7263 267.13469 388.51758 265.96875 C 393.04113 264.86795 397.4878 263.23609 401.57227 261.00195 C 405.76408 258.70908 409.77152 255.90645 413.0918 252.4707 C 415.90501 249.55965 418.24317 246.12722 419.98047 242.4707 C 421.7818 238.67943 422.73591 234.50672 423.50781 230.38086 C 424.28721 226.21486 424.75762 221.94823 424.59961 217.71289 C 424.43968 213.42586 423.77955 209.11711 422.54102 205.00977 C 421.3882 201.18668 419.61536 197.54383 417.60156 194.0957 C 415.31471 190.18004 412.75655 186.34173 409.56445 183.12109 C 406.9585 180.49183 403.87252 178.32367 400.66211 176.48047 C 397.48701 174.65756 394.08254 173.15946 390.55273 172.1875 C 387.4919 171.34467 384.28345 171.10006 381.11523 170.89648 C 379.07142 170.76515 377.01705 170.67484 374.96484 170.67383 z M 372.49609 183.21094 C 374.06133 183.22774 375.62869 183.30766 377.18945 183.375 C 380.47837 183.51691 383.84549 183.42567 387.02539 184.27734 C 390.69182 185.25932 394.11656 187.08003 397.36523 189.04297 C 399.83681 190.53637 402.34185 192.14285 404.23633 194.32227 C 406.66739 197.11898 408.36649 200.54254 409.71484 203.99414 C 410.87554 206.96539 411.46708 210.15083 411.89062 213.3125 C 412.39313 217.06373 412.69525 220.89502 412.31055 224.66016 C 411.94616 228.22669 410.8908 231.70738 409.74805 235.10547 C 408.68663 238.26175 407.89555 241.69921 405.7832 244.27344 C 403.82411 246.6609 400.85253 248.02802 398.16016 249.54102 C 395.03685 251.29619 391.7522 252.81231 388.34375 253.91602 C 385.12011 254.9599 381.77273 255.74271 378.39453 256.00586 C 375.12033 256.2609 371.79119 256.06648 368.55664 255.49805 C 365.24297 254.91571 361.92743 254.02332 358.90234 252.55078 C 356.30322 251.28559 353.84745 249.61946 351.79297 247.58594 C 349.29638 245.1148 347.30858 242.11495 345.66992 239.00781 C 344.04597 235.92857 342.91119 232.58026 342.08203 229.19922 C 341.15355 225.41318 340.4663 221.5025 340.5625 217.60547 C 340.6361 214.62414 341.3007 211.65784 342.16211 208.80273 C 343.14788 205.53544 344.43388 202.31322 346.20898 199.39844 C 347.88937 196.63915 350.00369 194.11911 352.35938 191.9082 C 355.35708 189.09474 358.62531 186.40219 362.36719 184.69922 C 364.06517 183.92646 365.96374 183.64267 367.81641 183.42383 C 369.36783 183.24058 370.93086 183.19414 372.49609 183.21094 z "
       transform="translate(39.795517,70.145884)"
       id="path3866" />
    <path
       style="fill:#aeb8bf;fill-rule:evenodd;stroke:none;stroke-width:1px;stroke-linecap:butt;stroke-linejoin:miter;stroke-opacity:1;fill-opacity:1"
       d="M 422.89062 226.23828 C 421.8899 228.69115 420.69693 231.53162 419.78711 233.41211 C 417.92418 237.26254 416.15872 241.2298 413.58789 244.64844 C 410.9534 248.15174 407.64582 251.12649 404.28906 253.94531 C 401.11609 256.60979 397.59781 258.84228 394.11328 261.08398 C 392.28555 262.25981 389.70242 263.75131 387.76172 264.85938 C 387.91513 264.82332 388.06962 264.79115 388.22266 264.75391 C 392.6533 263.67571 396.99846 262.08007 400.97266 259.90625 C 405.08249 257.65822 408.98629 254.92016 412.19336 251.60156 C 414.90587 248.79471 417.1707 245.47133 418.85156 241.93359 C 420.57375 238.3089 421.51362 234.24298 422.2793 230.15039 C 422.52212 228.85246 422.71959 227.54624 422.89062 226.23828 z "
       transform="translate(39.795517,70.145884)"
       id="path4288" />
    <path
       style="fill:#a2c700;fill-opacity:1;stroke:#a2c700;stroke-width:1.14550376px;stroke-linecap:butt;stroke-linejoin:miter;stroke-opacity:1"
       d="m 60.50043,251.51201 -5.85347,71.19083 33.064191,-2.84764 2.847631,-16.61119 -22.306452,5.06246 1.74023,-16.45299 18.034991,-2.37303 0,-16.9276 -15.820171,4.74606 1.74021,-12.49795 17.244003,-1.89842 3.322236,-14.71277 z"
       id="path3139"
       inkscape:connector-curvature="0" />
    <path
       style="fill:#a2c700;fill-opacity:1;stroke:none;stroke-width:1.14550376px;stroke-linecap:butt;stroke-linejoin:miter;stroke-opacity:1"
       d="m 109.4876,246.27624 1.42383,79.57553 -8.0683,0.79101 -10.283119,-79.25914 z"
       id="path3909"
       inkscape:connector-curvature="0" />
    <path
       style="fill:#a2c700;fill-opacity:1;stroke:#a2c700;stroke-width:1.14550376px;stroke-linecap:butt;stroke-linejoin:miter;stroke-opacity:1"
       d="m 152.04377,250.03578 c -5.56846,0.0495 -11.88239,1.28496 -18.97241,4.11666 l 1.89724,75.17368 10.7391,-0.17898 4.29564,-24.34196 c 42.32698,3.95906 41.0196,-55.11544 2.04043,-54.7694 z m 2.3626,20.58327 c 20.69727,1.15741 21.53846,21.7306 -1.71826,23.41124 l 1.71826,-23.41124 z"
       id="path3911"
       inkscape:connector-curvature="0" />
    <path
       style="fill:#a2c700;fill-opacity:1;stroke:#a2c700;stroke-width:1.14550376px;stroke-linecap:butt;stroke-linejoin:miter;stroke-opacity:1"
       d="m 287.00013,278.7075 c -8.24545,-0.40115 -16.03265,7.49108 -15.5359,21.97936 0.93505,27.27204 38.46563,30.34269 33.00483,-0.39377 -2.55974,-14.40771 -10.19354,-21.23163 -17.46893,-21.58559 z m 0.25057,15.21373 c 3.08187,-0.0498 6.77555,3.55508 7.58897,10.30953 1.53115,12.71424 -10.67306,11.59927 -11.9562,-1.32449 -0.60147,-6.05801 1.64795,-8.94105 4.36723,-8.98504 z"
       id="path3931"
       inkscape:connector-curvature="0" />
    <path
       sodipodi:nodetypes="ssccccssccs"
       style="display:inline;fill:#a2c700;fill-opacity:1;stroke:#a2c700;stroke-opacity:1"
       d="m 191.77866,278.7565 c -10.57814,0.6519 -14.74036,7.54662 -14.45411,20.48991 0.29967,13.54942 8.29413,27.56615 31.42188,18.27823 l -0.28637,-10.09475 c -13.41366,6.42472 -21.11884,6.03138 -18.61444,-4.29564 l 19.68835,-5.36955 c -1.32128,-16.03887 -12.13959,-19.35428 -17.75531,-19.0082 z m 0.89492,9.34301 c 2.42987,-0.12829 4.98749,1.9546 5.26216,6.37187 l -9.522,2.50579 c -1.08377,-5.74174 1.506,-8.73225 4.25984,-8.87766 z"
       id="path3924-1-9"
       inkscape:connector-curvature="0" />
    <path
       style="display:inline;fill:#a2c700;fill-opacity:1;stroke:#a2c700;stroke-opacity:1"
       d="m 212.46285,282.60305 7.01621,39.94945 10.45272,-2.4342 c -4.18394,-30.36344 -3.51491,-30.43413 12.60054,-35.36743 l -1.57507,-9.87997 c -9.20046,0.12468 -12.24117,4.74521 -15.17792,8.87766 l -0.57275,-6.58665 z"
       id="path3929-4-6"
       inkscape:connector-curvature="0"
       sodipodi:nodetypes="cccccccc" />
    <path
       style="display:inline;fill:#a2c700;fill-opacity:1;stroke:#a2c700;stroke-opacity:1"
       d="m 240.99335,283.1758 7.01621,39.94945 10.45272,-2.4342 c -4.18394,-30.36344 -3.51491,-30.43413 12.60054,-35.36743 l -1.57506,-9.87997 c -9.20047,0.12468 -12.24118,4.74521 -15.17793,8.87766 l -0.57275,-6.58665 z"
       id="path3929-4-6-2"
       inkscape:connector-curvature="0"
       sodipodi:nodetypes="cccccccc" />
    <path
       style="fill:#ececec;fill-opacity:1;stroke:none"
       d="m 136.00744,347.97123 16.80737,-2.63248 13.56739,38.4747 0.80998,-43.53715 18.42736,-3.23998 -15.38988,76.74689 z"
       id="path3936"
       inkscape:connector-curvature="0" />
    <path
       style="fill:#ececec;fill-opacity:1;stroke:none"
       d="m 265.24587,336.76357 4.42145,40.5078 c -17.40588,-9.1439 -25.94164,3.53647 -24.96893,14.76275 1.1098,12.8085 17.58055,25.29448 28.27963,10.45273 l 0.57275,2.14782 8.16171,0.28637 -5.01158,-68.01429 z m -5.87071,46.10652 c 2.99389,-0.24856 6.44463,2.86003 6.87302,8.73447 0.80639,11.05778 -10.26396,12.56568 -11.31185,0.14319 -0.49119,-5.82304 1.79716,-8.65833 4.43883,-8.87766 z"
       id="path3946"
       inkscape:connector-curvature="0"
       sodipodi:nodetypes="ccscccccssss" />
    <path
       sodipodi:nodetypes="ssccccssccs"
       style="display:inline;fill:#ececec;fill-opacity:1;stroke:none"
       d="m 197.18696,368.58519 c -10.57814,0.65191 -14.74035,7.54663 -14.4541,20.48991 0.29966,13.54942 8.29412,27.56615 31.42188,18.27824 l -0.28638,-10.09476 c -13.41366,6.42472 -21.11884,6.03139 -18.61444,-4.29564 l 19.68835,-5.36954 c -1.32128,-16.03888 -12.13959,-19.35429 -17.75531,-19.00821 z m 0.89493,9.34302 c 2.42986,-0.1283 4.98748,1.95459 5.26215,6.37186 l -9.522,2.50579 c -1.08377,-5.74173 1.506,-8.73224 4.25985,-8.87765 z"
       id="path3924-1"
       inkscape:connector-curvature="0" />
    <path
       style="display:inline;fill:#ececec;fill-opacity:1;stroke:none"
       d="m 217.87115,372.43175 7.01621,39.94944 10.45272,-2.43419 c -4.18394,-30.36345 -3.51491,-30.43414 12.60055,-35.36743 l -1.57507,-9.87997 c -9.20047,0.12467 -12.24118,4.7452 -15.17793,8.87765 l -0.57275,-6.58665 z"
       id="path3929-4"
       inkscape:connector-curvature="0"
       sodipodi:nodetypes="cccccccc" />
    <path
       style="fill:#a2c700;fill-opacity:1;stroke:none"
       d="m 337.14689,335.3101 6.15708,78.6102 c 12.89241,-1.91183 38.75206,-6.16655 20.33269,-29.21034 27.83491,-18.56789 14.38554,-49.41407 -12.67213,-49.39986 l -13.81764,0 z m 14.03242,20.18951 c 13.66858,2.67779 12.27728,17.17698 0.0716,18.90081 l -0.0716,-18.90081 z m 1.1455,35.22424 c 10.41538,4.21377 7.33094,13.25002 0.35797,14.81996 l -0.35797,-14.81996 z"
       id="path3989"
       inkscape:connector-curvature="0" />
    <path
       style="fill:#a2c700;fill-opacity:1;stroke:none"
       d="m 420.57152,344.94789 -11.74141,4.58202 2.11202,22.30152 -12.27837,4.04506 -0.14319,12.60055 13.63866,-3.83028 3.40071,35.61801 11.31185,-2.86376 -3.11434,-36.01178 9.41461,-2.64898 -0.14318,-14.17561 -10.45273,3.43652 -2.00463,-23.05327 z"
       id="path3775"
       inkscape:connector-curvature="0" />
    <path
       style="display:inline;fill:#a2c700;fill-opacity:1;stroke:none"
       d="m 392.96174,344.80279 -11.74141,4.58202 2.11202,22.30152 -12.27837,4.04506 -0.14319,12.60055 13.63866,-3.83028 3.40071,35.61801 11.31185,-2.86376 -3.11434,-36.01178 9.41461,-2.64898 -0.14318,-14.17561 -10.45273,3.43651 -2.00463,-23.05326 z"
       id="path3775-5"
       inkscape:connector-curvature="0" />
    <path
       sodipodi:nodetypes="ssccccssccs"
       style="display:inline;fill:#ececec;fill-opacity:1;stroke:none"
       d="m 298.88858,368.3695 c -10.57814,0.65191 -14.74036,7.54663 -14.45411,20.48992 0.29967,13.54942 8.29413,27.56615 31.42188,18.27823 l -0.28637,-10.09475 c -13.41366,6.42471 -21.11884,6.03138 -18.61444,-4.29564 l 19.68835,-5.36955 C 315.32261,371.33883 304.5043,368.02342 298.88858,368.3695 Z m 0.89492,9.34302 c 2.42987,-0.1283 4.98749,1.9546 5.26216,6.37186 l -9.522,2.50579 c -1.08377,-5.74173 1.506,-8.73224 4.25984,-8.87765 z"
       id="path3924-1-3"
       inkscape:connector-curvature="0" />
    <path
       style="display:inline;fill:#000000;fill-opacity:1;stroke:none"
       d="m 294.77049,192.19467 c -1.54261,6.16709 -6.04962,11.33479 -7.55469,17.51116 -0.66918,2.74615 -0.59942,8.4583 -0.59942,8.4583 0,0 0.63934,-2.38621 1.0437,-3.55221 2.9751,-8.57877 10.15101,-25.27797 10.15101,-25.27797 l -2.71693,-1.03401 c 0,0 -0.008,2.63095 -0.32367,3.89473 z"
       id="path3838"
       inkscape:connector-curvature="0"
       sodipodi:nodetypes="aacacca" />
    <path
       style="display:inline;fill:#000000;fill-opacity:1;stroke:none"
       d="m 392.58496,269.18663 c 0,0 5.32556,4.25141 7.79964,6.58834 2.19315,2.07157 4.31941,4.23094 6.22464,6.57005 1.42617,1.75096 3.87354,5.55824 3.87354,5.55824 l -1.50038,0.33701 c 0,0 -1.95735,-3.0205 -3.17895,-4.32938 -1.13868,-1.22005 -2.63881,-2.05703 -3.82176,-3.2342 -1.48357,-1.47632 -2.68941,-3.20842 -4.07956,-4.77302 -0.87574,-0.98564 -1.85945,-1.87672 -2.68353,-2.90594 -0.96514,-1.20541 -2.63362,-3.81111 -2.63362,-3.81111 z"
       id="path3858"
       inkscape:connector-curvature="0"
       sodipodi:nodetypes="caaccaaaacc" />
    <path
       style="display:inline;fill:#000000;fill-opacity:1;stroke:none"
       d="m 386.94444,280.14772 c 0,0 4.53686,-0.72556 6.82062,-0.66906 5.04581,0.12484 10.02212,1.26609 14.97821,2.22166 1.22881,0.23693 3.6523,0.86938 3.6523,0.86938 0,0 -5.25553,0.45401 -7.87963,0.30235 -5.91726,-0.34201 -17.5715,-2.72433 -17.5715,-2.72433 z"
       id="path3860"
       inkscape:connector-curvature="0"
       sodipodi:nodetypes="caacac" />
    <path
       style="display:inline;fill:#000000;fill-opacity:1;stroke:none"
       d="m 385.33973,282.68882 c 0,0 6.58459,1.3946 9.69644,2.63292 5.11673,2.03613 14.55894,7.80883 14.55894,7.80883 0,0 -5.83168,-1.55532 -8.63286,-2.65994 -3.5778,-1.4109 -6.94282,-3.31231 -10.37731,-5.04304 -1.7614,-0.88761 -5.24521,-2.73877 -5.24521,-2.73877 z"
       id="path3862"
       inkscape:connector-curvature="0"
       sodipodi:nodetypes="cacaac" />
    <path
       style="display:inline;fill:#000000;fill-opacity:1;stroke:none"
       d="m 389.96839,294.43859 c 2.91818,-2.0803 6.08888,-3.90313 9.47102,-5.0883 3.10478,-1.08797 9.70826,-1.77758 9.70826,-1.77758 0,0 -2.59434,2.02212 -4.08719,2.66982 -2.17581,0.94401 -4.67435,0.90348 -6.91125,1.6919 -3.84811,1.35632 -11.08677,5.1877 -11.08677,5.1877 0,0 1.83231,-1.91818 2.90593,-2.68354 z"
       id="path3864"
       inkscape:connector-curvature="0"
       sodipodi:nodetypes="aacaaca" />
    <path
       style="display:inline;fill:#000000;fill-opacity:1;stroke:none"
       d="m 426.08253,284.30287 c 0,0 2.67421,-2.22831 4.15753,-3.12621 2.18389,-1.32197 4.47793,-2.53301 6.9162,-3.28915 1.84362,-0.57172 3.79347,-0.77407 5.71904,-0.90824 1.37036,-0.0955 2.74954,-0.0129 4.12036,0.0757 1.59164,0.10285 4.75559,0.52859 4.75559,0.52859 0,0 -2.23218,0.68359 -3.37961,0.8797 -1.53485,0.26232 -3.12756,0.0884 -4.65488,0.3915 -1.27537,0.25309 -2.48296,0.77336 -3.71728,1.18209 -2.46084,0.81487 -4.95719,1.54222 -7.35296,2.5322 -1.51529,0.62614 -2.79899,1.93547 -4.42466,2.14849 -0.72023,0.0944 -2.13933,-0.41465 -2.13933,-0.41465 z"
       id="path3870"
       inkscape:connector-curvature="0"
       sodipodi:nodetypes="caaaacaaaaac" />
    <path
       style="display:inline;fill:#000000;fill-opacity:1;stroke:none"
       d="m 424.85008,287.32381 c 0,0 3.16857,-0.92871 4.80216,-1.08596 1.95897,-0.18856 3.94683,-0.0504 5.90133,0.17989 2.60136,0.30656 5.18474,0.84466 7.69492,1.59302 1.67504,0.4994 4.87863,1.92233 4.87863,1.92233 0,0 -1.65661,0.52026 -2.51229,0.52776 -2.15003,0.0188 -4.21586,-0.8507 -6.33485,-1.21523 -2.23534,-0.38454 -4.45937,-0.97051 -6.7269,-1.02485 -1.69995,-0.0407 -3.40639,0.8577 -5.07413,0.52587 -0.97725,-0.19444 -2.62887,-1.42283 -2.62887,-1.42283 z"
       id="path3872"
       inkscape:connector-curvature="0"
       sodipodi:nodetypes="caaacaaaac" />
    <path
       style="display:inline;fill:#000000;fill-opacity:1;stroke:none"
       d="m 426.97783,291.13561 c 0,0 2.85003,-0.13143 4.23078,0.16049 1.8972,0.40109 3.68456,1.25669 5.40505,2.15121 1.75899,0.91453 3.44961,1.99312 4.97449,3.26007 1.61038,1.33798 4.34708,4.53371 4.34708,4.53371 0,0 -1.74115,-0.0197 -2.5586,-0.28032 -1.93095,-0.61551 -3.54892,-1.95846 -5.31215,-2.95767 -1.96316,-1.1125 -3.83098,-2.40309 -5.86415,-3.38178 -1.29695,-0.6243 -2.91032,-0.66073 -4.0194,-1.5782 -0.57924,-0.47916 -1.2031,-1.90751 -1.2031,-1.90751 z"
       id="path3874"
       inkscape:connector-curvature="0"
       sodipodi:nodetypes="caaacaaaac" />
    <path
       style="display:inline;fill:#000000;fill-opacity:1;stroke:none"
       d="m 390.06734,304.35183 c 0,0 1.92896,-2.95708 3.29048,-4.03215 2.42302,-1.91324 5.44212,-2.96245 8.33822,-4.03205 2.70706,-0.99975 8.37269,-2.2017 8.37269,-2.2017 0,0 -2.28544,1.36932 -3.47575,1.96459 -2.37777,1.18912 -4.91184,2.04329 -7.30503,3.20106 -1.08627,0.52528 -2.16557,1.07161 -3.19699,1.69776 -1.17077,0.71077 -2.17848,1.68052 -3.38409,2.33045 -0.83592,0.45063 -2.63955,1.07201 -2.63955,1.07201 z"
       id="path3876"
       inkscape:connector-curvature="0"
       sodipodi:nodetypes="caacaaaac" />
    <path
       style="display:inline;fill:#000000;fill-opacity:1;stroke:none"
       d="m 396.21449,309.74183 c 0,0 2.64399,-5.186 4.51325,-7.38257 1.05704,-1.24212 2.35259,-2.28693 3.7127,-3.18708 2.19806,-1.45472 7.08587,-3.50989 7.08587,-3.50989 0,0 -0.73145,1.38623 -1.27554,1.93444 -1.80085,1.81449 -4.48036,2.54897 -6.37067,4.27006 -1.40478,1.27903 -2.26892,3.06337 -3.60208,4.41687 -1.33638,1.35677 -4.37237,3.67738 -4.37237,3.67738 z"
       id="path3878"
       inkscape:connector-curvature="0"
       sodipodi:nodetypes="caacaaacc" />
    <path
       style="display:inline;fill:#000000;fill-opacity:1;stroke:none"
       d="m 265.36454,206.61186 c 0,0 4.44658,2.15338 6.64504,3.27945 5.67134,2.90492 16.88214,8.96755 16.88214,8.96755 0,0 -8.0805,-1.2025 -11.68875,-2.97601 -4.49821,-2.21094 -11.83843,-9.27099 -11.83843,-9.27099 z"
       id="path3934"
       inkscape:connector-curvature="0"
       sodipodi:nodetypes="cacac" />
    <path
       style="display:inline;fill:#000000;fill-opacity:1;stroke:none"
       d="m 281.7545,195.6079 c 0,0 3.22699,6.70816 5.14815,9.8895 2.16073,3.57804 7.14829,10.30256 7.14829,10.30256 0,0 -2.15253,-7.1232 -4.0296,-10.29421 -2.18972,-3.69916 -8.26684,-9.89785 -8.26684,-9.89785 z"
       id="path3836"
       inkscape:connector-curvature="0"
       sodipodi:nodetypes="cacac" />
    <path
       style="display:inline;fill:#000000;fill-opacity:1;stroke:none"
       d="m 284.21879,223.20432 c 0,0 -6.32866,-12.92596 -10.78449,-18.50372 -0.79145,-0.99072 -2.78236,-2.59416 -2.78236,-2.59416 0,0 4.11031,8.61256 6.73198,12.58112 2.0064,3.03718 6.83487,8.51676 6.83487,8.51676 z"
       id="path3840"
       inkscape:connector-curvature="0"
       sodipodi:nodetypes="cacac" />
    <path
       style="display:inline;fill:#000000;fill-opacity:1;stroke:none"
       d="m 283.18936,227.92624 c -6.18478,1.77353 -17.28097,8.59883 -17.28097,8.59883 0,0 2.68398,-0.0337 3.95881,-0.39959 6.22405,-1.78653 17.42018,-8.59721 17.42018,-8.59721 0,0 -2.77876,0.0197 -4.09802,0.39797 z"
       id="path3846"
       inkscape:connector-curvature="0"
       sodipodi:nodetypes="acaca" />
    <path
       style="display:inline;fill:#000000;fill-opacity:1;stroke:none"
       d="m 302.29119,207.61055 9.17894,-3.674 c 0,0 -1.63633,2.15342 -2.75252,2.86707 -0.94649,0.60515 -2.07107,0.96257 -3.18626,1.09829 -1.07647,0.13103 -3.24016,-0.29136 -3.24016,-0.29136 z"
       id="path3850"
       inkscape:connector-curvature="0"
       sodipodi:nodetypes="ccaac" />
    <path
       style="display:inline;fill:#000000;fill-opacity:1;stroke:none"
       d="m 262.00042,218.16942 c 0,0 3.45251,-1.56088 5.29549,-1.59251 3.81525,-0.0655 7.28996,2.39102 11.06913,2.91857 1.87281,0.26144 4.04973,-0.86074 5.67183,0.11115 0.85751,0.51378 1.46609,2.61614 1.46609,2.61614 0,0 -5.94319,-0.32106 -8.85303,-0.89598 -2.34227,-0.46277 -4.50972,-1.65236 -6.86508,-2.04311 -1.32105,-0.21916 -2.6889,0.0332 -4.01416,-0.15881 -1.28309,-0.18587 -3.77027,-0.95545 -3.77027,-0.95545 z"
       id="path3852"
       inkscape:connector-curvature="0"
       sodipodi:nodetypes="caaacaaac" />
    <path
       style="display:inline;fill:#aeb8bf;fill-opacity:1;stroke:#000000;stroke-width:2.5;stroke-linecap:butt;stroke-linejoin:miter;stroke-miterlimit:4;stroke-dasharray:none;stroke-opacity:1"
       d="m 411.44186,285.53723 c -0.72319,0.19748 -1.41907,0.52333 -2.04513,0.93572 -0.61276,0.40366 -1.34361,0.8027 -1.63176,1.47752 -0.39205,0.91816 -0.14038,2.02094 0.0834,2.99389 0.23693,1.03014 0.63883,2.06957 1.30539,2.88995 0.67065,0.82541 1.59089,1.48316 2.57729,1.8808 0.9815,0.39566 2.10193,0.60626 3.14545,0.43032 0.9418,-0.15879 1.8121,-0.69694 2.55453,-1.29775 0.66694,-0.53972 1.30972,-1.20078 1.61872,-2.00116 0.2477,-0.6416 0.20968,-1.37846 0.11702,-2.05995 -0.11374,-0.83642 -0.40279,-1.66067 -0.8135,-2.39814 -0.40028,-0.71868 -0.92999,-1.38702 -1.56943,-1.90453 -0.70394,-0.56972 -1.52103,-1.08383 -2.41074,-1.25273 -0.96514,-0.18322 -1.98353,0.0473 -2.93122,0.30606 z"
       id="path3856"
       inkscape:connector-curvature="0"
       sodipodi:nodetypes="aaaaaaaaaaaaaa" />
    <path
       style="display:inline;fill:#000000;fill-opacity:1;stroke:none"
       d="m 289.65259,227.74484 c -0.72665,0.93648 0.74109,8.04718 3.99109,14.42636 2.0962,4.11448 2.45618,7.28607 2.27552,11.03567 -0.67257,-7.89405 -7.48846,-13.36487 -7.70835,-23.3916 z"
       id="path3991"
       inkscape:connector-curvature="0"
       sodipodi:nodetypes="csccc" />
    <path
       style="display:inline;fill:none;stroke:#000000;stroke-width:2.85992074;stroke-linecap:butt;stroke-linejoin:miter;stroke-miterlimit:4;stroke-dasharray:none;stroke-opacity:1"
       d="m 283.06771,225.06928 4.3693,23.91536 50.86642,21.50154"
       id="path3989-9"
       inkscape:connector-curvature="0"
       sodipodi:nodetypes="ccc" />
    <path
       style="display:inline;fill:#f58428;fill-opacity:1;stroke:#000000;stroke-width:2.5;stroke-linecap:butt;stroke-linejoin:miter;stroke-miterlimit:4;stroke-dasharray:none;stroke-opacity:1"
       d="m 295.40696,223.72404 33.51384,25.11653 -2.94152,3.92003 -32.05439,-26.10205 z"
       id="path3842"
       inkscape:connector-curvature="0" />
    <path
       style="display:inline;fill:#f58428;fill-opacity:1;stroke:#000000;stroke-width:2.5;stroke-linecap:butt;stroke-linejoin:miter;stroke-miterlimit:4;stroke-dasharray:none;stroke-opacity:1"
       d="m 346.78588,211.51116 -53.43289,6.84256 0.57245,3.45958 55.15138,-6.1543 z"
       id="path3844"
       inkscape:connector-curvature="0" />
    <path
       style="display:inline;fill:#aeb8bf;fill-opacity:1;stroke:#000000;stroke-width:2.5;stroke-linecap:butt;stroke-linejoin:miter;stroke-miterlimit:4;stroke-dasharray:none;stroke-opacity:1"
       d="m 347.59523,209.5935 c 0.0864,-8.81498 1.77318,-17.1805 3.3363,-26.18873 l 5.09822,1.8313 c -2.19006,8.19214 -2.78193,16.23772 -3.52861,25.79271 z"
       id="path3828"
       inkscape:connector-curvature="0"
       sodipodi:nodetypes="ccccc" />
    <path
       style="display:inline;fill:#aeb8bf;fill-opacity:1;stroke:#000000;stroke-width:2.5;stroke-linecap:butt;stroke-linejoin:miter;stroke-miterlimit:4;stroke-dasharray:none;stroke-opacity:1"
       d="m 369.07601,241.93803 c 0,0 -1.62213,-3.95146 -1.85946,-6.04682 -0.0725,-0.64027 -0.17304,-1.36507 0.14052,-1.92801 0.39586,-0.71069 1.25098,-1.06339 1.9761,-1.43216 0.91675,-0.4662 1.91578,-0.81303 2.93477,-0.95243 0.85871,-0.11747 1.84787,-0.32549 2.59785,0.10892 0.91995,0.53285 1.22603,1.74673 1.70144,2.69763 0.751,1.50214 1.79624,4.70714 1.79624,4.70714 z"
       id="path3884"
       inkscape:connector-curvature="0"
       sodipodi:nodetypes="caaaaaacc" />
    <path
       style="display:inline;fill:#f58428;fill-opacity:1;stroke:#000000;stroke-width:2.5;stroke-linecap:butt;stroke-linejoin:miter;stroke-miterlimit:4;stroke-dasharray:none;stroke-opacity:1"
       d="m 345.92287,207.95359 c -0.95401,15.46369 -3.19836,31.26326 -5.17815,46.99398 l 3.97437,3.79732 c 21.99297,-9.24013 43.97375,-17.42956 65.93434,-23.8794 l 1.32232,-10.6115 c -20.9077,-6.95199 -41.897,-13.81464 -66.05288,-16.3004 z m 8.23533,8.91684 c 18.17316,2.58894 35.82322,7.29069 53.5789,11.5658 l 0.90262,1.62706 c -19.68169,4.28258 -39.47551,10.28725 -59.40356,17.80357 1.53871,-7.99007 2.97619,-13.65515 4.92204,-30.99643 z"
       id="path3822"
       inkscape:connector-curvature="0"
       sodipodi:nodetypes="ccccccccccc" />
    <path
       style="display:inline;fill:#6a747c;stroke:#000000;stroke-width:2.5;stroke-linecap:butt;stroke-linejoin:miter;stroke-miterlimit:4;stroke-dasharray:none;stroke-opacity:1;fill-opacity:1"
       d="m 343.22632,182.25205 c 9.27375,2.20131 16.51756,6.13528 23.66931,10.04113 0.94996,0.51881 2.05945,0.86995 3.14088,0.82408 0.53109,-0.0225 1.14579,-0.13994 1.50267,-0.53389 0.30779,-0.33979 0.34353,-0.87682 0.33053,-1.33511 -0.0219,-0.77177 -0.31741,-1.53326 -0.68315,-2.21323 -0.7149,-1.32914 -1.93158,-2.31971 -2.87355,-3.49886 -1.94736,-2.43767 -3.47744,-5.24578 -5.74253,-7.39144 -1.56466,-1.48216 -3.39133,-2.70889 -5.31299,-3.68469 -1.40637,-0.71414 -2.90897,-1.33238 -4.47141,-1.54837 -1.74057,-0.24061 -3.55781,-0.11799 -5.2623,0.30884 -1.50094,0.37586 -3.13318,0.83793 -4.21521,1.94397 -0.75691,0.77373 -0.99104,1.93897 -1.29475,2.97788 -0.20105,0.68776 -0.4444,1.41377 -0.33968,2.12262 0.0515,0.34842 0.25365,0.66619 0.46154,0.95049 0.29602,0.40486 0.60264,0.92072 1.09063,1.03655 z"
       id="path3826"
       inkscape:connector-curvature="0"
       sodipodi:nodetypes="ssaaaaaaaaaaaaas" />
    <path
       style="display:inline;fill:#aeb8bf;fill-opacity:1;stroke:#000000;stroke-width:2.5;stroke-linecap:butt;stroke-linejoin:miter;stroke-miterlimit:4;stroke-dasharray:none;stroke-opacity:1"
       d="m 287.00542,244.62262 c -0.41452,0.33082 -0.70875,0.82402 -0.87864,1.32642 -0.21439,0.63403 -0.21737,1.33921 -0.13464,2.00337 0.0751,0.6029 0.21396,1.2369 0.56466,1.73302 0.29466,0.41685 0.72673,0.78213 1.2144,0.93302 0.66649,0.20623 1.43354,0.12175 2.08981,-0.11497 0.63562,-0.22926 1.25282,-0.64506 1.62909,-1.20633 0.28708,-0.42818 0.38115,-0.98377 0.3794,-1.49929 -0.002,-0.63494 -0.2046,-1.27122 -0.47983,-1.84342 -0.23816,-0.49521 -0.56624,-0.96699 -0.98715,-1.32024 -0.41969,-0.35223 -0.9201,-0.71193 -1.46724,-0.74103 -0.68674,-0.0365 -1.39235,0.30048 -1.92986,0.72945 z"
       id="path3848"
       inkscape:connector-curvature="0"
       sodipodi:nodetypes="aaaaaaaaaaaa" />
    <path
       style="display:inline;fill:#f58428;fill-opacity:1;stroke:#000000;stroke-width:2.5;stroke-linecap:butt;stroke-linejoin:miter;stroke-miterlimit:4;stroke-dasharray:none;stroke-opacity:1"
       d="m 409.58304,234.40845 c 0.88409,15.67764 -1.87826,35.15635 1.93791,46.20316 l 7.5707,1.83892 c -3.17212,-13.86001 -1.48892,-31.05649 -1.1126,-46.63954 z"
       id="path3854"
       inkscape:connector-curvature="0"
       sodipodi:nodetypes="ccccc" />
    <path
       style="display:inline;fill:none;stroke:#000000;stroke-width:2.85992074;stroke-linecap:butt;stroke-linejoin:miter;stroke-miterlimit:4;stroke-dasharray:none;stroke-opacity:1"
       d="m 293.49705,217.9377 51.73614,26.58112"
       id="path3987"
       inkscape:connector-curvature="0"
       sodipodi:nodetypes="cc" />
    <path
       style="display:inline;fill:#aeb8bf;fill-opacity:1;stroke:#000000;stroke-width:2.5;stroke-linecap:butt;stroke-linejoin:miter;stroke-miterlimit:4;stroke-dasharray:none;stroke-opacity:1"
       d="m 285.56238,217.10399 c -0.64722,0.37556 -1.28586,0.80266 -1.78788,1.35757 -0.58446,0.64602 -1.10198,1.39827 -1.36481,2.22884 -0.30534,0.96491 -0.26089,2.02031 -0.1927,3.03007 0.0552,0.81681 0.1766,1.64907 0.484,2.40783 0.27749,0.68496 0.73185,1.29228 1.19915,1.86482 0.49312,0.60417 0.97199,1.29518 1.6744,1.63403 1.08829,0.52501 2.39358,0.57072 3.5963,0.45466 0.98798,-0.0953 1.9084,-0.55856 2.82827,-0.93141 0.70724,-0.28663 1.41695,-0.58816 2.0594,-0.99999 0.5722,-0.36676 1.15337,-0.76179 1.5751,-1.29479 0.55728,-0.70432 0.93689,-1.55633 1.18643,-2.41909 0.19007,-0.65714 0.27196,-1.3584 0.21942,-2.04047 -0.0712,-0.92402 -0.30082,-1.85818 -0.71705,-2.6862 -0.36459,-0.72531 -0.88961,-1.38868 -1.51369,-1.90784 -0.72662,-0.60446 -1.59798,-1.06263 -2.50494,-1.32863 -0.88392,-0.25926 -1.83284,-0.22363 -2.75398,-0.22887 -0.79028,-0.005 -1.59657,-0.016 -2.3648,0.16945 -0.57135,0.13788 -1.11425,0.39504 -1.62262,0.69 z"
       id="path3830"
       inkscape:connector-curvature="0"
       sodipodi:nodetypes="aaaaaaaaaaaaaaaaaaa" />
    <path
       style="display:inline;fill:#aeb8bf;fill-opacity:1;stroke:#000000;stroke-width:2.5;stroke-linecap:butt;stroke-linejoin:miter;stroke-miterlimit:0.5;stroke-dasharray:none;stroke-opacity:1"
       d="m 347.62295,244.52442 c -1.1275,-0.43958 -2.33053,-2.7837 -2.33053,-2.7837 0,0 -2.29107,2.37398 -3.56663,1.92763 -1.10952,-0.38825 -1.38003,-3.24523 -1.38003,-3.24523 0,0 -1.36048,1.96559 -2.38537,1.94134 -1.39492,-0.033 -3.11803,-2.79283 -3.11803,-2.79283 0,0 0.22639,3.3664 -0.99162,4.0053 -1.28708,0.67508 -4.07766,-1.54379 -4.07766,-1.54379 0,0 1.93614,2.83903 1.13555,3.95124 -1.12126,1.55768 -5.75245,0.24827 -5.75245,0.24827 0,0 1.52561,2.50352 0.98171,3.63441 -0.61116,1.27072 -3.87889,1.68772 -3.87889,1.68772 0,0 2.73718,2.07934 2.71513,3.57577 -0.0163,1.10277 -2.07768,2.57501 -2.07768,2.57501 0,0 2.32108,1.12815 2.65192,2.23609 0.27342,0.91563 -0.8195,2.74713 -0.8195,2.74713 0,0 2.63715,0.21355 3.13632,1.21782 0.66612,1.34018 -1.23154,4.31757 -1.23154,4.31757 0,0 2.39231,-0.81425 3.38993,-0.27569 1.08598,0.58626 1.77379,3.2498 1.77379,3.2498 0,0 1.74699,-1.79606 2.77454,-1.54303 1.78161,0.43873 3.01826,4.60319 3.01826,4.60319 0,0 1.4825,-2.54833 2.70677,-2.48894 1.7074,0.0828 3.42115,3.82025 3.42115,3.82025 0,0 1.66533,-2.85019 3.10966,-3.27187 1.3203,-0.38546 4.00531,0.99163 4.00531,0.99163 0,0 -1.05435,-2.35845 -0.35719,-3.1546 1.10739,-1.26462 5.04187,-0.099 5.04187,-0.099 0,0 -2.38796,-2.86669 -1.60623,-4.11422 0.76984,-1.22853 4.33585,-0.34347 4.33585,-0.34347 0,0 -3.02619,-2.31766 -2.63363,-3.81112 0.2686,-1.02191 2.85147,-1.3846 2.85147,-1.3846 0,0 -2.59442,-1.97892 -2.40287,-3.33586 0.19312,-1.36809 3.25893,-2.56129 3.25893,-2.56129 0,0 -3.93567,-0.93756 -4.38077,-2.57121 -0.37673,-1.38267 2.09138,-3.75625 2.09138,-3.75625 0,0 -3.86108,0.88831 -5.1957,-0.21784 -1.01966,-0.84511 -0.90022,-3.86974 -0.90022,-3.86974 0,0 -2.27531,0.83867 -3.313,0.43411 z"
       id="path3812"
       inkscape:connector-curvature="0"
       sodipodi:nodetypes="acacacacacacacacacacacacacacacacacacaca" />
    <path
       style="display:inline;fill:#000000;fill-opacity:1;stroke:#000000;stroke-width:2.5;stroke-linecap:butt;stroke-linejoin:miter;stroke-miterlimit:4;stroke-dasharray:none;stroke-opacity:1"
       d="m 326.4303,265.3864 c 4.72656,-1.95785 8.87268,-5.11106 12.78215,-8.75163 l 1.55215,1.98705 c -4.62846,2.89585 -9.1205,5.82547 -11.9992,9.15453 z"
       id="path3820"
       inkscape:connector-curvature="0"
       sodipodi:nodetypes="ccccc" />
    <path
       style="display:inline;fill:#6a747c;fill-opacity:1;stroke:#000000;stroke-width:2.5;stroke-linecap:butt;stroke-linejoin:miter;stroke-miterlimit:4;stroke-dasharray:none;stroke-opacity:1"
       d="m 339.6399,251.38762 c 1.04906,-0.45798 2.28658,-0.30303 3.42754,-0.21083 0.79475,0.0642 1.63434,0.14401 2.33295,0.52832 0.82814,0.45554 1.52582,1.18841 2.00956,2.0004 0.45227,0.75918 0.85766,1.66559 0.75018,2.54272 -0.091,0.74274 -0.6601,1.35885 -1.13632,1.93605 -0.64409,0.78066 -1.34261,1.62196 -2.27884,2.00633 -0.99834,0.40989 -2.19174,0.4714 -3.23232,0.18525 -0.87867,-0.24162 -1.61382,-0.89314 -2.26563,-1.53 -0.81268,-0.79401 -1.62765,-1.69715 -1.97267,-2.77968 -0.24522,-0.76941 -0.3176,-1.68028 2.8e-4,-2.42262 0.42888,-1.00157 1.36672,-1.82006 2.36527,-2.25594 z"
       id="path3816"
       inkscape:connector-curvature="0"
       sodipodi:nodetypes="aaaaaaaaaaaa" />
    <path
       style="display:inline;fill:#6a747c;fill-opacity:1;stroke:#000000;stroke-width:2.5;stroke-linecap:butt;stroke-linejoin:miter;stroke-miterlimit:4;stroke-dasharray:none;stroke-opacity:1"
       d="m 322.00003,260.29427 -4.56283,6.32669 c 3.67241,2.41367 7.36023,4.78941 10.45385,8.62755 l 5.82558,-6.54832 c -4.09568,-2.5107 -7.99511,-5.32201 -11.7166,-8.40592 z"
       id="path3818"
       inkscape:connector-curvature="0"
       sodipodi:nodetypes="ccccc" />
    <path
       style="display:inline;fill:none;fill-opacity:1;stroke:none"
       d="m 429.9053,199.66671 1.30865,2.40997 4.31881,-0.22833 3.4052,-0.68448 1.83885,-2.48483 -0.90528,-3.57483 -1.00303,-2.35072 -2.78263,-0.17154 -3.79725,0.87486 z"
       id="path4012"
       inkscape:connector-curvature="0"
       sodipodi:nodetypes="cccccccccc" />
    <path
       sodipodi:nodetypes="caaaacccccccccaaaaacc"
       inkscape:connector-curvature="0"
       id="path4020"
       d="m 407.16343,201.29627 c 0,0 -1.79712,1.53308 -2.20209,2.59199 -0.45095,1.17912 -0.36635,2.55201 -0.0996,3.78593 0.20169,0.93315 0.5524,1.92574 1.25103,2.57638 0.90312,0.84109 2.20361,1.42038 3.43696,1.37652 1.24445,-0.0443 3.36049,-1.63176 3.36049,-1.63176 l 8.91663,-5.29868 -6.70538,6.71666 -2.79127,5.36978 -0.26282,3.44989 3.8274,1.32535 3.06001,-4.53127 10.75145,-14.63373 4.79085,-0.11147 c 0,0 3.21268,-0.18562 4.46773,-1.06198 0.86967,-0.60725 1.55268,-1.61207 1.75727,-2.65285 0.19029,-0.96811 -0.2644,-1.96757 -0.57893,-2.90273 -0.33081,-0.98356 -0.5323,-2.17427 -1.35981,-2.80042 -0.45021,-0.34066 -1.1029,-0.28469 -1.66732,-0.29781 -0.5249,-0.0122 -1.56177,0.20464 -1.56177,0.20464 z"
       style="display:inline;fill:#aeb8bf;fill-opacity:1;stroke:#000000;stroke-width:2.5;stroke-linecap:butt;stroke-linejoin:miter;stroke-miterlimit:4;stroke-dasharray:none;stroke-opacity:1" />
    <path
       style="display:inline;fill:#6a747c;stroke:#000000;stroke-width:2.5;stroke-linecap:butt;stroke-linejoin:miter;stroke-miterlimit:4;stroke-dasharray:none;stroke-opacity:1;fill-opacity:1"
       d="m 416.70262,227.03399 c 0,0 2.27766,-0.16041 3.40688,-0.0392 0.86139,0.0925 1.72814,0.26096 2.5333,0.58073 0.59012,0.23437 1.19114,0.51792 1.6428,0.96421 0.3459,0.3418 0.74058,0.76313 0.75341,1.24924 0.0105,0.39907 -0.25884,0.79886 -0.56359,1.05673 -0.35017,0.29631 -1.30465,0.43773 -1.30465,0.43773 l -0.82146,-0.042 0.60422,0.0985 c 0,0 0.76486,0.54321 1.03293,0.91774 0.31646,0.4422 0.64656,0.96022 0.63231,1.50381 -0.009,0.35513 -0.20886,0.71225 -0.46402,0.95944 -0.31638,0.30651 -1.20732,0.53735 -1.20732,0.53735 l -0.79708,0.0852 1.01089,0.15359 c 0,0 0.89642,0.56759 1.13023,1.01732 0.22907,0.44059 0.33059,1.00575 0.17974,1.47886 -0.19205,0.60235 -0.72321,1.09689 -1.27646,1.40289 -0.42689,0.23611 -1.4404,0.25894 -1.4404,0.25894 l -5.4457,-0.73268 z"
       id="path4008"
       inkscape:connector-curvature="0"
       sodipodi:nodetypes="caaaaacccaaacccaaaccc" />
    <path
       sodipodi:nodetypes="cccaaaaaaaccaaaaaccccaaaaazcaaacccaaaacccaaaacc"
       inkscape:connector-curvature="0"
       id="path4005"
       d="m 409.32871,216.3027 9.2295,1.33237 -1.25536,7.39254 c 0,0 0.81717,0.59752 1.18422,0.94413 0.23304,0.22005 0.46283,0.45019 0.64147,0.7163 0.18815,0.28024 0.3066,0.60184 0.44231,0.91089 0.15381,0.35041 0.33434,0.69533 0.42077,1.06816 0.0641,0.27608 0.17129,0.58319 0.0689,0.84748 -0.0721,0.18613 -0.27332,0.2955 -0.43791,0.40842 -0.25412,0.17437 -0.54067,0.30244 -0.83168,0.40384 -0.29919,0.10417 -0.92784,0.20582 -0.92784,0.20582 l -1.63156,-0.23553 c 0,0 1.63066,0.0593 2.39869,0.30351 0.19021,0.0605 0.38993,0.13801 0.52837,0.2818 0.21371,0.22202 0.30894,0.53848 0.40384,0.83168 0.0986,0.30496 0.25393,0.63878 0.16621,0.94706 -0.0738,0.2595 -0.32045,0.44544 -0.53864,0.60415 -0.32066,0.23321 -1.08852,0.47966 -1.08852,0.47966 l -0.96743,0.22505 -1.18241,0.0847 1.96991,-0.0756 c 0,0 0.5567,0.0611 0.78522,0.20602 0.25549,0.16203 0.43485,0.43193 0.58264,0.69592 0.22406,0.40026 0.47578,0.84753 0.43772,1.30464 -0.0331,0.39783 -0.29687,0.75971 -0.56359,1.05674 -0.40629,0.45244 -0.95566,0.77253 -1.50838,1.02608 -0.6383,0.29284 -0.64672,0.44969 -2.03445,0.54739 -1.38773,0.0977 -6.19361,-0.76105 -6.19361,-0.76105 0,0 -2.40058,-0.41356 -3.15554,-1.25743 -0.42797,-0.47836 -0.5938,-1.22062 -0.51009,-1.8568 0.0554,-0.41965 0.28566,-0.86796 0.64281,-1.0952 0.42313,-0.26927 1.49808,-0.14014 1.49808,-0.14014 l 1.12357,-0.10509 -1.51503,-0.0964 c 0,0 -0.86362,-0.40321 -1.15289,-0.76162 -0.34215,-0.42392 -0.53859,-0.98095 -0.59272,-1.52303 -0.0449,-0.44984 -0.0232,-0.96313 0.23211,-1.33624 0.27459,-0.40133 0.79382,-0.58293 1.24924,-0.75342 0.50025,-0.18733 1.57844,-0.27704 1.57844,-0.27704 l 0.96286,0.1687 -1.49467,-0.15518 c 0,0 -0.63146,-0.52229 -0.81682,-0.87585 -0.2033,-0.38774 -0.31725,-0.84685 -0.28046,-1.28312 0.0349,-0.41414 0.18936,-0.84644 0.4663,-1.15632 0.22513,-0.25192 0.5685,-0.38338 0.89168,-0.48187 0.52411,-0.15978 1.63613,-0.15822 1.63613,-0.15822 z"
       style="display:inline;fill:#6a747c;fill-opacity:1;stroke:#000000;stroke-width:2.5;stroke-linecap:butt;stroke-linejoin:miter;stroke-miterlimit:4;stroke-dasharray:none;stroke-opacity:1" />
    <path
       style="display:inline;fill:#6a747c;fill-opacity:1;stroke:#000000;stroke-width:1.47926927;stroke-linecap:butt;stroke-linejoin:miter;stroke-miterlimit:4;stroke-dasharray:none;stroke-opacity:1"
       d="m 431.48851,202.35187 3.00896,-0.07 c 0,0 3.21268,-0.18562 4.46773,-1.06198 0.86967,-0.60725 1.55268,-1.61207 1.75727,-2.65285 0.19029,-0.96811 -0.2644,-1.96757 -0.57893,-2.90273 -0.33081,-0.98356 -0.5323,-2.17427 -1.35981,-2.80042 -0.45021,-0.34066 -1.1029,-0.28469 -1.66732,-0.29781 -0.5249,-0.0122 -1.56177,0.20464 -1.56177,0.20464 l -6.92065,2.07822 z m -13.76801,-4.2257 -10.55669,3.1701 c 0,0 -1.79712,1.53308 -2.20209,2.59199 -0.45095,1.17912 -0.36635,2.55201 -0.0996,3.78593 0.20169,0.93315 0.5524,1.92574 1.25103,2.57638 0.90312,0.84109 2.20361,1.42038 3.43696,1.37652 1.24445,-0.0443 3.36049,-1.63176 3.36049,-1.63176 l 7.19964,-4.27837 z"
       id="path3880"
       inkscape:connector-curvature="0"
       sodipodi:nodetypes="ccaaaaacccccaaaaccc" />
    <path
       style="fill:#8fa87f;fill-opacity:1;stroke:#000000;stroke-width:2.5;stroke-linecap:butt;stroke-linejoin:miter;stroke-miterlimit:4;stroke-dasharray:none;stroke-opacity:1"
       d="m 415.40683,153.27358 c 4.50442,7.61587 8.2279,18.09511 9.99284,37.14875 2.59209,-1.23169 10.32361,-3.17575 6.98756,1.39466 6.7258,2.67454 2.12404,8.5087 -1.52763,2.40292 4.42794,7.27944 -3.42962,7.37185 -5.31594,2.166 -0.81816,-0.38059 -1.50845,-0.95114 -2.59521,-1.92368 -0.51387,-0.45986 -1.52797,-2.45651 -2.19886,-5.53629 -0.0116,-8.28929 -6.40699,-20.50671 -11.34177,-31.25028 z"
       id="path3810"
       inkscape:connector-curvature="0"
       sodipodi:nodetypes="cccccsccc" />
    <path
       style="fill:#8fa87f;fill-opacity:1;stroke:#000000;stroke-width:2.5;stroke-linecap:butt;stroke-linejoin:miter;stroke-miterlimit:4;stroke-dasharray:none;stroke-opacity:1"
       d="m 373.34856,121.52241 13.87427,-1.05975 c -3.75477,-8.7937 -9.39657,-14.84402 -7.86699,-31.320127 -5.74857,6.84463 -7.20052,18.218157 -6.00728,32.379877 z"
       id="path3806"
       inkscape:connector-curvature="0"
       sodipodi:nodetypes="cccc" />
    <path
       style="fill:#8fa87f;fill-opacity:1;stroke:#000000;stroke-width:2.5;stroke-linecap:butt;stroke-linejoin:miter;stroke-miterlimit:4;stroke-dasharray:none;stroke-opacity:1"
       d="m 367.88825,130.38927 c -10.77644,-4.4154 -22.49896,-4.2497 -31.25199,-18.46285 4.99183,-7.49319 -3.53436,-11.02822 -3.53282,-2.71425 -2.30388,-6.08721 -13.05518,-3.52156 -4.00082,4.01912 -6.71009,3.43131 -2.24567,6.31561 1.54198,5.69009 2.46142,-0.4065 2.31561,-0.67039 3.97805,-1.44908 12.81743,16.57069 25.50196,19.25713 33.19717,23.60915 z"
       id="path3804"
       inkscape:connector-curvature="0"
       sodipodi:nodetypes="ccccsccc" />
    <path
       style="fill:#8fa87f;fill-opacity:1;stroke:#000000;stroke-width:2.5;stroke-linecap:butt;stroke-linejoin:miter;stroke-miterlimit:4;stroke-dasharray:none;stroke-opacity:1"
       d="m 443.9872,138.01142 -20.94276,0.20244 c -10.77498,-21.98274 -28.66064,-25.42013 -49.65982,-20.73715 -13.08177,-5.40826 -21.63327,-16.40764 -23.87341,-35.196357 9.91073,-2.502444 5.71278,-11.43744 0.12227,-5.734915 -0.21843,-5.766415 -6.25317,-8.638769 -6.20561,2.044283 -10.00136,-4.398196 -6.12863,8.638421 0.97528,7.139968 1.61606,15.755031 8.07023,29.652801 20.57321,41.228541 -5.75682,19.7638 22.40888,41.63999 34.06959,34.81347 l 10.12886,0.61881 c 8.48338,-2.88699 15.0788,-7.43547 15.24181,-17.64469 l 17.99801,3.99601 z"
       id="path3800"
       inkscape:connector-curvature="0"
       sodipodi:nodetypes="ccccccccccccc" />
    <path
       style="fill:#8fa87f;fill-opacity:1;stroke:#000000;stroke-width:2.5;stroke-linecap:butt;stroke-linejoin:miter;stroke-miterlimit:4;stroke-dasharray:none;stroke-opacity:1"
       d="m 438.30778,128.31068 c -1.33353,16.70406 3.08208,33.10015 8.50396,49.44233 9.88748,-10.75363 19.38172,-20.65235 27.61053,-42.06155 3.82174,-2.25343 8.26185,-3.50215 10.45631,-8.39959 -4.52992,-1.93836 -8.56466,-0.0977 -12.70847,0.91065 -10.19056,-7.95967 -19.36326,-8.15136 -28.63201,-9.07609 -3.43888,-3.17365 -6.09848,-6.99973 -11.48489,-8.54289 -0.45428,5.41687 3.76447,11.73954 6.25457,17.72714 z"
       id="path3020"
       inkscape:connector-curvature="0"
       sodipodi:nodetypes="cccccccc" />
    <path
       style="fill:#ffffff;fill-opacity:1;stroke:#000000;stroke-width:2.5;stroke-linecap:butt;stroke-linejoin:miter;stroke-miterlimit:4;stroke-dasharray:none;stroke-opacity:1"
       d="m 452.53142,128.80994 c -0.34187,0.18925 -0.6942,0.39618 -0.94096,0.69916 -0.22821,0.28024 -0.36266,0.63433 -0.45695,0.98323 -0.10446,0.38655 -0.12953,0.79609 -0.11135,1.1961 0.0195,0.43005 0.10134,0.86083 0.23588,1.26975 0.0973,0.2957 0.2083,0.60125 0.40794,0.84012 0.24117,0.2885 0.56889,0.5094 0.91122,0.66497 0.36294,0.16494 0.77088,0.31366 1.16646,0.26416 0.52524,-0.0657 1.00565,-0.38549 1.4146,-0.72154 0.31193,-0.25638 0.55864,-0.5959 0.74899,-0.952 0.19027,-0.35597 0.34684,-0.74863 0.37536,-1.15126 0.032,-0.45214 -0.10609,-0.90481 -0.23507,-1.33935 -0.12122,-0.40835 -0.22727,-0.84946 -0.50155,-1.17536 -0.33575,-0.39895 -0.81364,-0.69989 -1.31282,-0.85062 -0.31098,-0.0939 -0.65491,-0.0696 -0.97449,-0.0113 -0.25601,0.0467 -0.49956,0.15794 -0.72725,0.28396 z"
       id="path3794"
       inkscape:connector-curvature="0"
       sodipodi:nodetypes="aaaaaaaaaaaaaaaa" />
    <path
       style="fill:#ffffff;fill-opacity:1;stroke:#000000;stroke-width:2.5;stroke-linecap:butt;stroke-linejoin:miter;stroke-miterlimit:4;stroke-dasharray:none;stroke-opacity:1"
       d="m 458.52981,133.82229 c -0.4762,0.10984 -0.95153,0.35712 -1.2754,0.72312 -0.32153,0.36332 -0.42474,0.87772 -0.5586,1.34406 -0.10884,0.37915 -0.22878,0.77431 -0.19456,1.16728 0.0399,0.4578 0.21901,0.90788 0.4583,1.30017 0.19827,0.32501 0.47093,0.61391 0.78398,0.83057 0.47761,0.33054 1.02967,0.61194 1.60727,0.67304 0.47064,0.0498 0.9698,-0.0552 1.39536,-0.26226 0.49349,-0.24013 0.92173,-0.63694 1.23784,-1.08556 0.2919,-0.41426 0.53851,-0.90732 0.55941,-1.41366 0.0191,-0.46194 -0.20293,-0.91023 -0.40229,-1.32737 -0.18515,-0.38809 -0.4159,-0.76824 -0.72554,-1.06659 -0.3525,-0.33962 -0.77807,-0.63029 -1.24403,-0.7802 -0.52196,-0.16795 -1.10745,-0.22584 -1.64174,-0.1026 z"
       id="path3796"
       inkscape:connector-curvature="0"
       sodipodi:nodetypes="aaaaaaaaaaaaaa" />
    <path
       style="fill:#f54828;fill-opacity:1;stroke:#000000;stroke-width:2.5;stroke-linecap:butt;stroke-linejoin:miter;stroke-miterlimit:4;stroke-dasharray:none;stroke-opacity:1"
       d="m 444.63692,173.28871 c -0.54296,0.31342 -1.05845,0.73349 -1.39299,1.26369 -0.26602,0.42162 -0.33946,0.94219 -0.43012,1.4324 -0.0957,0.51729 -0.20323,1.05497 -0.11672,1.57387 0.10149,0.60866 0.36669,1.20195 0.72847,1.70183 0.40107,0.55419 0.91685,1.07407 1.53978,1.35682 0.60784,0.27589 1.32577,0.35968 1.98571,0.25933 0.71107,-0.10812 1.37702,-0.48121 1.9598,-0.90273 0.5609,-0.4057 1.15835,-0.87678 1.41565,-1.51942 0.24395,-0.60927 0.14106,-1.3232 0.0229,-1.96876 -0.1352,-0.73847 -0.40574,-1.47218 -0.82235,-2.09672 -0.3555,-0.533 -0.81415,-1.03959 -1.38252,-1.3353 -0.52074,-0.27093 -1.14287,-0.36992 -1.72884,-0.33512 -0.62152,0.0369 -1.23949,0.25887 -1.77873,0.57011 z"
       id="path3798"
       inkscape:connector-curvature="0"
       sodipodi:nodetypes="aaaaaaaaaaaaaa" />
    <path
       style="fill:#000000;fill-opacity:1;stroke:none"
       d="m 412.40487,123.4355 c 4.35157,4.81728 2.51575,7.09074 0.38954,10.20398 -3.85227,5.64057 -11.38405,5.44443 -14.23791,-1.66898 -15.69443,10.38737 -28.24135,-8.1647 -9.40982,-16.7725 14.88235,2.85074 13.69029,1.3973 23.25819,8.2375 z"
       id="path3802"
       inkscape:connector-curvature="0"
       sodipodi:nodetypes="csccc" />
    <path
       style="fill:#8fa87f;fill-opacity:1;stroke:#000000;stroke-width:2.5;stroke-linecap:round;stroke-linejoin:miter;stroke-miterlimit:4;stroke-dasharray:none;stroke-opacity:1"
       d="m 397.5256,158.50825 c 5.66947,15.20044 9.53805,27.22202 9.31057,38.10612 -0.0183,0.87628 -0.0417,1.5088 0.32954,2.12007 0.55421,0.9125 1.44048,1.10811 2.58161,1.89566 1.14114,0.78756 1.93464,4.54176 2.89168,5.17121 2.49572,1.64143 8.55364,-1.55552 2.77849,-5.46739 5.06656,4.77189 12.94524,-6.89802 -2.57569,-4.80554 0,0 -2.27727,-2.34126 -2.22315,-3.81093 0.7721,-20.97073 -0.33853,-14.37184 -0.49049,-35.5129"
       id="path3808"
       inkscape:connector-curvature="0"
       sodipodi:nodetypes="csazsccsc" />
    <path
       style="display:inline;fill:#000000;fill-opacity:1;stroke:#000000;stroke-width:0.64737606px;stroke-linecap:butt;stroke-linejoin:miter;stroke-opacity:1"
       d="m 436.29422,390.67478 c 2.62993,-3.67758 4.14182,-7.98709 21.33507,-3.43322 6.77229,-2.95007 19.82018,-3.09887 27.6339,5.7499 l -3.96753,10.18873 c 13.05503,21.3908 -11.3699,33.1913 -22.84163,26.22965 -9.72759,3.96046 -19.82711,1.64161 -22.96858,-6.42715 -3.37348,3.5247 -1.7467,-1.45273 -3.91044,-1.96049 l -2.28882,-25.58574 z"
       id="path3171"
       inkscape:connector-curvature="0"
       sodipodi:nodetypes="ccccccccc" />
    <path
       style="display:inline;fill:#ececec;fill-opacity:1;stroke:none"
       d="m 437.29264,413.47134 c 0,1.91538 -1.74681,3.4681 -3.90163,3.4681 -2.15479,0 -3.90161,-1.55272 -3.90161,-3.4681 0,-1.9154 1.74682,-3.46812 3.90161,-3.46812 2.15482,0 3.90163,1.55272 3.90163,3.46812 z"
       id="path3108"
       inkscape:connector-curvature="0" />
    <path
       sodipodi:nodetypes="ssccccssccs"
       style="display:inline;fill:#ececec;fill-opacity:1;stroke:none"
       d="m 447.35069,393.6212 c -6.84406,0.42178 -9.53702,4.88267 -9.35182,13.25699 0.19389,8.76649 5.36631,17.83533 20.32999,11.82603 l -0.18529,-6.53131 c -8.67864,4.1568 -13.66391,3.90231 -12.04356,-2.77928 l 12.73838,-3.47411 c -0.85486,-10.37716 -7.85433,-12.52224 -11.4877,-12.29832 z m 0.57902,6.04493 c 1.57212,-0.083 3.22691,1.26463 3.40462,4.12261 l -6.16074,1.62125 c -0.7012,-3.71491 0.97438,-5.64977 2.75612,-5.74386 z"
       id="path3924-1-3-9"
       inkscape:connector-curvature="0" />
    <g
       style="font-style:normal;font-weight:normal;font-size:40px;line-height:125%;font-family:Sans;letter-spacing:0px;word-spacing:0px;display:inline;fill:#ececec;fill-opacity:1;stroke:none"
       id="text3157"
       transform="matrix(0.64737606,0,0,0.64737606,6.3449477,-118.26329)">
      <path
         style="font-variant:normal;font-stretch:normal;font-family:Ubuntu;-inkscape-font-specification:Ubuntu;fill:#ececec;fill-opacity:1"
         d="m 706.96495,813.57134 c 5.34168,1.79618 10.9195,2.0085 7.78362,8.71143 -2.78273,5.94806 -6.74584,2.01435 -12.49694,0.37658 l -2.75086,6.61235 c 13.13558,8.18256 24.37217,2.71346 25.44414,-9.22751 1.07196,-11.941 -13.40045,-9.08862 -15.09528,-15.96424 -1.69483,-6.87562 7.58896,-6.04669 11.94441,-2.63438 l 2.55059,-6.06045 c -2.28213,-2.06504 -8.72263,-6.43366 -16.69798,-2.51284 -7.97534,3.92083 -12.04419,16.52798 -0.6817,20.69906 z"
         id="path3162"
         inkscape:connector-curvature="0"
         sodipodi:nodetypes="cscczzcczc" />
    </g>
    <path
       style="fill:#1f231b;fill-rule:evenodd;stroke:none;stroke-width:1px;stroke-linecap:butt;stroke-linejoin:miter;stroke-opacity:1;fill-opacity:1"
       d="M 348.78125 193.63867 C 347.19241 193.73087 345.46562 195.60901 344.04297 196.60547 C 341.35028 198.4915 338.70053 200.72637 337.06836 203.58008 C 335.27995 206.70697 334.49967 210.44162 334.35742 214.04102 C 334.26942 216.26867 335.01891 218.4545 335.51953 220.62695 C 336.1529 223.37549 335.04039 228.45061 337.84375 228.76172 C 339.45206 228.94021 339.41858 225.9342 340.16797 224.5 C 340.41683 224.02373 340.64942 223.53977 340.88867 223.05859 C 340.64716 221.24705 340.51758 219.42514 340.5625 217.60547 C 340.6361 214.62414 341.3007 211.65784 342.16211 208.80273 C 343.14788 205.53544 344.43388 202.31322 346.20898 199.39844 C 347.35147 197.52242 348.70632 195.76763 350.18945 194.13477 C 350.08229 194.05107 349.97649 193.96416 349.85352 193.89258 C 349.50711 193.69093 349.14791 193.6174 348.78125 193.63867 z "
       transform="translate(39.795517,70.145884)"
       id="path4295" />
    <path
       style="fill:#aeb8bf;fill-opacity:1;fill-rule:evenodd;stroke:none;stroke-width:1px;stroke-linecap:butt;stroke-linejoin:miter;stroke-opacity:1"
       d="m 389.64031,252.23473 c -2.90981,0.6172 -4.27043,1.1775 -6.71198,2.87656 -4.4836,3.12011 -8.10849,8.53627 -10.5474,13.42396 -1.43404,2.87388 -3.28749,9.04062 -3.28749,9.04062 0,0 4.3215,-9.10942 7.67083,-12.73906 2.24872,-2.43691 5.0924,-4.26095 7.80781,-6.16406 3.69395,-2.58892 11.50625,-7.12292 11.50625,-7.12292 0,0 -4.32687,0.2371 -6.43802,0.6849 z"
       id="path4300"
       inkscape:connector-curvature="0"
       sodipodi:nodetypes="ssscsscs" />
    <path
       style="fill:#aeb8bf;fill-rule:evenodd;stroke:none;stroke-width:1px;stroke-linecap:butt;stroke-linejoin:miter;stroke-opacity:1;fill-opacity:1"
       d="m 303.5489,182.23837 c 0,0 -6.38976,-1.60847 -9.65703,-1.91771 -3.11386,-0.29472 -6.26543,-0.18303 -9.38307,0.0685 -3.26989,0.26381 -6.52254,0.79774 -9.72552,1.50677 -2.48314,0.54968 -5.01154,1.07421 -7.32839,2.12318 -2.04811,0.92729 -5.68463,3.62995 -5.68463,3.62995 0,0 5.00728,-1.25602 7.53385,-1.78073 3.29287,-0.68385 6.6589,-1.00354 9.93099,-1.78073 1.71478,-0.4073 3.32624,-1.23871 5.06823,-1.50677 2.75321,-0.42367 5.57027,-0.16668 8.35573,-0.13698 2.42155,0.0258 4.84086,0.38725 7.2599,0.27396 1.21915,-0.0571 3.62994,-0.47944 3.62994,-0.47944 z"
       id="path4302"
       inkscape:connector-curvature="0"
       sodipodi:nodetypes="caaaacaaaaac" />
    <path
       style="fill:#aeb8bf;fill-opacity:1;fill-rule:evenodd;stroke:none;stroke-width:1px;stroke-linecap:butt;stroke-linejoin:miter;stroke-opacity:1"
       d="m 309.30203,266.8915 c 0,0 -4.23984,1.42621 -6.43802,1.78073 -2.25668,0.36396 -4.5633,0.31391 -6.84896,0.34244 -2.74023,0.0342 -5.50194,0.15363 -8.21875,-0.20547 -3.07409,-0.40632 -6.1059,-1.19039 -9.04062,-2.19166 -2.86298,-0.97679 -5.5793,-2.35017 -8.28724,-3.69844 -1.35378,-0.67404 -3.9724,-2.19167 -3.9724,-2.19167 0,0 4.85589,1.25103 7.32839,1.64375 3.82751,0.60795 9.08385,2.81181 12.94452,3.15053 4.51769,0.39637 7.01955,0.82732 10.5474,0.95885 2.82931,0.10548 6.1832,-0.61713 8.49271,-0.13698 1.15389,0.2399 3.49297,0.54792 3.49297,0.54792 z"
       id="path4304"
       inkscape:connector-curvature="0"
       sodipodi:nodetypes="cssssscssasc" />
    <path
       style="fill:#aeb8bf;fill-rule:evenodd;stroke:none;stroke-width:1px;stroke-linecap:butt;stroke-linejoin:miter;stroke-opacity:1;fill-opacity:1"
       d="m 347.38224,174.63603 c 0,0 1.36271,-0.28518 2.05468,-0.34245 0.86458,-0.0716 1.74256,-0.11375 2.60261,0 1.21881,0.1612 2.41904,0.50458 3.56146,0.95885 1.2529,0.4982 2.56429,1.01018 3.56146,1.91771 0.36526,0.33243 0.64025,0.77354 0.82187,1.23282 0.20427,0.51655 0.52755,1.14954 0.27396,1.64375 -0.18305,0.35674 -0.68322,0.46836 -1.07921,0.53129 -0.99276,0.15777 -2.01108,-0.17937 -2.98517,-0.42755 -1.36766,-0.34845 -2.70952,-0.83867 -3.96754,-1.4784 -0.99359,-0.50527 -1.93755,-1.12548 -2.78944,-1.84436 -0.76531,-0.64582 -2.05468,-2.19166 -2.05468,-2.19166 z"
       id="path4306"
       inkscape:connector-curvature="0"
       sodipodi:nodetypes="caaaaaaaaaac" />
    <path
       style="fill:#aeb8bf;fill-rule:evenodd;stroke:none;stroke-width:1px;stroke-linecap:butt;stroke-linejoin:miter;stroke-opacity:1;fill-opacity:1"
       d="m 408.95437,226.68811 c 0.38553,-0.72728 1.64259,-0.14984 2.46563,-0.13698 1.05401,0.0165 2.43815,-0.50304 3.15052,0.27396 0.24685,0.26925 0.25829,0.83754 0,1.09583 -0.74258,0.74258 -2.10925,0.13645 -3.15052,0 -0.70282,-0.0921 -1.48847,-0.12149 -2.05469,-0.54791 -0.21268,-0.16017 -0.53564,-0.44967 -0.41094,-0.6849 z"
       id="path4310"
       inkscape:connector-curvature="0"
       sodipodi:nodetypes="aaaaaaa" />
    <path
       style="fill:#aeb8bf;fill-rule:evenodd;stroke:none;stroke-width:1px;stroke-linecap:butt;stroke-linejoin:miter;stroke-opacity:1;fill-opacity:1"
       d="m 408.40646,230.52353 c 1.29453,-0.28214 2.66364,-0.0694 3.97239,0.13698 0.6567,0.10354 1.48862,0.0401 1.91771,0.54791 0.26686,0.31582 0.41273,0.92473 0.13698,1.23282 -0.51768,0.57838 -1.55508,0.064 -2.32865,0 -1.38395,-0.11454 -3.27934,0.42842 -4.10937,-0.6849 -0.22003,-0.29513 -0.0756,-0.79532 0.13698,-1.09583 0.059,-0.0833 0.1742,-0.11524 0.27396,-0.13698 z"
       id="path4312"
       inkscape:connector-curvature="0"
       sodipodi:nodetypes="aaaaaaaa" />
    <path
       style="fill:#aeb8bf;fill-rule:evenodd;stroke:none;stroke-width:1px;stroke-linecap:butt;stroke-linejoin:miter;stroke-opacity:1;fill-opacity:1"
       d="m 408.26948,235.45478 c 0.26416,-1.15829 2.37785,-0.23941 3.56145,-0.13698 0.65131,0.0564 1.50671,-0.0975 1.91771,0.41094 0.20094,0.24856 0.226,0.73285 0,0.95885 -0.74258,0.74258 -2.13131,0.25315 -3.15052,0 -0.85238,-0.21171 -2.52393,-0.37652 -2.32864,-1.23281 z"
       id="path4314"
       inkscape:connector-curvature="0"
       sodipodi:nodetypes="aaaaaa" />
  </g>
</svg>
